<svg xmlns="http://www.w3.org/2000/svg" version="1.1" xmlns:xlink="http://www.w3.org/1999/xlink" xmlns:svgjs="http://svgjs.dev/svgjs" width="150" height="150"><svg width="150" height="150" viewBox="0 0 150 150" fill="none" xmlns="http://www.w3.org/2000/svg">
<rect width="150" height="150" fill="white"></rect>
<path d="M74.4196 15C59.4595 14.9997 41.9058 20.1597 38.6377 39.8049C18.9925 43.0729 15.0002 60.6333 15 75.5826C15.0004 91.4727 20.8534 106.473 39.4159 110.582C43.5245 129.144 59.081 135 74.4198 135C89.3718 135 106.925 131.005 110.193 111.36C129.838 108.092 135 90.5321 135 75.5824C135 59.0758 127.977 44.6917 109.415 40.583C105.306 22.0206 90.7294 15.0003 74.4196 15ZM74.4198 26.6507C92.0744 26.6507 101.215 26.6507 106.712 40.0776C103.94 39.6353 100.914 39.3885 97.5892 39.3737L77.2685 39.2832L77.278 41.4036L83.8162 41.4327L83.8787 55.4714L64.7739 55.3863L64.722 41.4015L71.3488 41.4317L71.3394 39.3114L48.544 39.2099C46.8112 39.2021 42.825 39.2913 41.2326 39.4542C45.4687 24.8613 60.4271 26.6507 74.4198 26.6507ZM107.512 42.486C108.174 44.9478 108.483 47.6694 108.496 50.6317L108.518 55.5797L94.4791 55.5172L94.4166 41.4784L99.3646 41.5005C102.328 41.5151 105.049 41.8247 107.512 42.486ZM83.9252 66.0724L84.0103 85.1773L64.9054 85.0922L64.8204 65.9874L83.9252 66.0724ZM54.1713 55.3384L40.0986 55.2861L40.0801 51.1333C40.0684 48.526 40.2822 43.8958 40.6713 41.8399C42.728 41.45 47.3575 41.237 49.9648 41.2486L54.1176 41.2671L54.1713 55.3384ZM25.4852 75.5824C25.4852 61.5853 23.6934 46.6365 38.2863 42.399C38.1234 43.9914 38.035 47.9768 38.042 49.7104L38.1435 72.5057L40.2639 72.5151L40.2336 65.8883L54.2185 65.9402L54.3036 85.045L40.2648 84.9825L40.2357 78.4442L38.1154 78.4348L38.2058 98.7553C38.2206 102.08 38.4675 105.106 38.9098 107.879C23.1565 103.544 25.4852 93.5319 25.4852 75.5824ZM54.3508 95.6468L54.4133 109.685L49.4653 109.663C46.5037 109.65 43.7813 109.34 41.3196 108.679C40.6575 106.218 40.348 103.496 40.3355 100.534L40.3135 95.5857L54.3508 95.6468ZM74.4176 124.515C56.4585 124.515 47.6237 122.184 42.1182 111.087C44.8909 111.529 47.9169 111.776 51.2415 111.791L71.5621 111.881L71.5527 109.761L65.0144 109.732L64.9519 95.6932L84.0568 95.7783L84.1087 109.763L77.4818 109.733L77.4913 111.853L100.287 111.955C102.019 111.963 106.006 111.873 107.598 111.71C102.38 125.68 87.2354 124.515 74.4176 124.515ZM94.6593 95.8262L108.732 95.8785L108.751 100.031C108.762 102.639 108.549 107.268 108.159 109.325C106.103 109.715 101.473 109.928 98.8659 109.916L94.7131 109.898L94.6593 95.8262ZM123.349 75.5824C123.349 89.5796 125.137 104.528 110.544 108.766C110.707 107.173 110.796 103.188 110.789 101.454L110.687 78.659L108.567 78.6495L108.597 85.2764L94.6121 85.2245L94.5271 66.1197L108.566 66.1822L108.595 72.7204L110.715 72.7299L110.625 52.4093C110.61 49.0847 110.363 46.0587 109.921 43.2861C123.349 47.6216 123.349 57.9264 123.349 75.5824Z" fill="#2C3729"></path>
</svg><style>@media (prefers-color-scheme: light) { :root { filter: none; } }
@media (prefers-color-scheme: dark) { :root { filter: none; } }
</style></svg>