<svg width="41" height="41" viewBox="0 0 41 41" fill="none" xmlns="http://www.w3.org/2000/svg">
<g clip-path="url(#clip0_381_1360)">
<path d="M20.5 24.0875C18.5781 24.0875 16.9125 22.55 16.9125 20.5C16.9125 18.5781 18.45 16.9125 20.5 16.9125C22.4219 16.9125 24.0875 18.45 24.0875 20.5C24.0875 22.4219 22.4219 24.0875 20.5 24.0875Z" fill="white"/>
<path fill-rule="evenodd" clip-rule="evenodd" d="M24.8562 11.7875H16.1438C15.1188 11.9156 14.6063 12.0437 14.2219 12.1719C13.7094 12.3 13.325 12.5562 12.9406 12.9406C12.6365 13.2448 12.4928 13.5489 12.3191 13.9166C12.2733 14.0134 12.2253 14.115 12.1719 14.2219C12.1521 14.2813 12.1292 14.3439 12.1046 14.4109C11.9706 14.7771 11.7875 15.2773 11.7875 16.1437V24.8562C11.9156 25.8812 12.0437 26.3937 12.1719 26.7781C12.3 27.2906 12.5563 27.675 12.9406 28.0594C13.2448 28.3635 13.5489 28.5072 13.9166 28.6809C14.0135 28.7267 14.1149 28.7746 14.2219 28.8281C14.2813 28.8479 14.3439 28.8708 14.4109 28.8954C14.7771 29.0294 15.2773 29.2125 16.1438 29.2125H24.8562C25.8812 29.0844 26.3938 28.9562 26.7781 28.8281C27.2906 28.7 27.675 28.4437 28.0594 28.0594C28.3635 27.7552 28.5072 27.4511 28.6809 27.0834C28.7267 26.9865 28.7747 26.8851 28.8281 26.7781C28.8479 26.7187 28.8708 26.6561 28.8954 26.5891C29.0294 26.2229 29.2125 25.7227 29.2125 24.8562V16.1437C29.0844 15.1187 28.9563 14.6062 28.8281 14.2219C28.7 13.7094 28.4437 13.325 28.0594 12.9406C27.7552 12.6365 27.4511 12.4928 27.0834 12.3191C26.9866 12.2733 26.8849 12.2253 26.7781 12.1719C26.7187 12.1521 26.6561 12.1292 26.5891 12.1046C26.2229 11.9706 25.7227 11.7875 24.8562 11.7875ZM20.5 14.9906C17.425 14.9906 14.9906 17.425 14.9906 20.5C14.9906 23.575 17.425 26.0094 20.5 26.0094C23.575 26.0094 26.0094 23.575 26.0094 20.5C26.0094 17.425 23.575 14.9906 20.5 14.9906ZM27.4187 14.8625C27.4187 15.5701 26.8451 16.1437 26.1375 16.1437C25.4299 16.1437 24.8562 15.5701 24.8562 14.8625C24.8562 14.1549 25.4299 13.5812 26.1375 13.5812C26.8451 13.5812 27.4187 14.1549 27.4187 14.8625Z" fill="white"/>
<path fill-rule="evenodd" clip-rule="evenodd" d="M0 0H41V41H0V0ZM16.1438 9.86562H24.8562C26.0094 9.99375 26.7781 10.1219 27.4187 10.3781C28.1875 10.7625 28.7 11.0187 29.3406 11.6594C29.9812 12.3 30.3656 12.9406 30.6219 13.5812C30.8781 14.2219 31.1344 14.9906 31.1344 16.1437V24.8562C31.0062 26.0094 30.8781 26.7781 30.6219 27.4187C30.2375 28.1875 29.9812 28.7 29.3406 29.3406C28.7 29.9812 28.0594 30.3656 27.4187 30.6219C26.7781 30.8781 26.0094 31.1344 24.8562 31.1344H16.1438C14.9906 31.0062 14.2219 30.8781 13.5813 30.6219C12.8125 30.2375 12.3 29.9812 11.6594 29.3406C11.0188 28.7 10.6344 28.0594 10.3781 27.4187C10.1219 26.7781 9.86562 26.0094 9.86562 24.8562V16.1437C9.99375 14.9906 10.1219 14.2219 10.3781 13.5812C10.7625 12.8125 11.0188 12.3 11.6594 11.6594C12.3 11.0187 12.9406 10.6344 13.5813 10.3781C14.2219 10.1219 14.9906 9.86562 16.1438 9.86562Z" fill="white"/>
</g>
<defs>
<clipPath id="clip0_381_1360">
<rect width="41" height="41" rx="20.5" fill="white"/>
</clipPath>
</defs>
</svg>
