<svg width="41" height="41" viewBox="0 0 41 41" fill="none" xmlns="http://www.w3.org/2000/svg">
<g clip-path="url(#clip0_381_1383)">
<path fill-rule="evenodd" clip-rule="evenodd" d="M0 0H41V41H0V0ZM10.5062 17.0406V30.75H14.8625V17.0406H10.5062ZM10.25 12.6844C10.25 14.0938 11.275 15.1188 12.6844 15.1188C14.0938 15.1188 15.1188 14.0938 15.1188 12.6844C15.1188 11.275 14.0938 10.25 12.6844 10.25C11.4031 10.25 10.25 11.275 10.25 12.6844ZM26.3938 30.75H30.4938V22.2938C30.4938 18.0656 27.9312 16.6562 25.4969 16.6562C23.3187 16.6562 21.7812 18.0656 21.3969 18.9625V17.0406H17.2969V30.75H21.6531V23.4469C21.6531 21.525 22.9344 20.5 24.2156 20.5C25.4969 20.5 26.3938 21.1406 26.3938 23.3187V30.75Z" fill="white"/>
</g>
<defs>
<clipPath id="clip0_381_1383">
<rect width="41" height="41" rx="20.5" fill="white"/>
</clipPath>
</defs>
</svg>
