<svg width="90" height="90" viewBox="0 0 90 90" fill="none" xmlns="http://www.w3.org/2000/svg">
<path d="M44.5714 0.627686C33.5166 0.627493 20.5452 4.44048 18.1303 18.9574C3.61335 21.3723 0.663252 34.3487 0.663086 45.3956C0.663366 57.1377 4.98848 68.2222 18.7053 71.2583C21.7414 84.9752 33.2369 89.3025 44.5716 89.3025C55.6204 89.3025 68.5913 86.3503 71.0062 71.8334C85.5232 69.4184 89.3375 56.4426 89.3375 45.3954C89.3376 33.1978 84.148 22.5685 70.4312 19.5324C67.3951 5.81562 56.6236 0.627895 44.5714 0.627686ZM44.5716 9.23705C57.6175 9.23705 64.3719 9.23705 68.4343 19.159C66.3854 18.8321 64.1494 18.6497 61.6926 18.6388L46.6766 18.5719L46.6836 20.1388L51.5151 20.1603L51.5613 30.5343L37.4437 30.4714L37.4053 20.1372L42.3022 20.1596L42.2953 18.5927L25.4506 18.5177C24.1701 18.512 21.2244 18.5779 20.0477 18.6982C23.1781 7.91475 34.2316 9.23705 44.5716 9.23705ZM69.025 20.9386C69.5142 22.7578 69.743 24.7689 69.7522 26.958L69.7685 30.6143L59.3945 30.5681L59.3483 20.1941L63.0046 20.2104C65.1942 20.2212 67.2053 20.45 69.025 20.9386ZM51.5956 38.368L51.6585 52.4856L37.5409 52.4228L37.478 38.3051L51.5956 38.368ZM29.6089 30.436L19.2097 30.3974L19.1961 27.3286C19.1875 25.402 19.3455 21.9804 19.633 20.4612C21.1528 20.1731 24.5738 20.0157 26.5004 20.0243L29.5692 20.0379L29.6089 30.436ZM8.41119 45.3954C8.41119 35.0522 7.08709 24.0057 17.8706 20.8743C17.7502 22.051 17.6849 24.9961 17.69 26.2772L17.7651 43.1219L19.3319 43.1289L19.3096 38.2319L29.6438 38.2703L29.7066 52.3879L19.3326 52.3417L19.3111 47.5102L17.7443 47.5032L17.8111 62.5192C17.8221 64.976 18.0044 67.212 18.3313 69.2609C6.69036 66.0577 8.41119 58.6593 8.41119 45.3954ZM29.7415 60.2221L29.7877 70.5961L26.1314 70.5798C23.9429 70.5701 21.9312 70.3408 20.112 69.8527C19.6228 68.0335 19.3941 66.0223 19.3849 63.8333L19.3686 60.177L29.7415 60.2221ZM44.5699 81.5542C31.299 81.5542 24.7705 79.8324 20.7022 71.6318C22.7511 71.9586 24.9871 72.141 27.4439 72.152L42.4599 72.2188L42.4529 70.652L37.6214 70.6305L37.5752 60.2565L51.6928 60.3193L51.7312 70.6535L46.8342 70.6312L46.8412 72.198L63.6859 72.273C64.9664 72.2788 67.9121 72.2129 69.0888 72.0925C65.2328 82.4151 54.0417 81.5542 44.5699 81.5542ZM59.5276 60.3548L69.9268 60.3934L69.9404 63.4622C69.949 65.3888 69.7916 68.8098 69.5035 70.3296C67.9837 70.6177 64.5627 70.7751 62.6361 70.7665L59.5673 70.7528L59.5276 60.3548ZM80.7283 45.3954C80.7283 55.7388 82.0494 66.785 71.2659 69.9164C71.3863 68.7397 71.4516 65.7946 71.4465 64.5136L71.3715 47.6689L69.8046 47.6619L69.8269 52.5588L59.4927 52.5205L59.4299 38.4029L69.8039 38.4491L69.8254 43.2806L71.3922 43.2875L71.3254 28.2715C71.3144 25.8148 71.132 23.5787 70.8052 21.5299C80.7283 24.7336 80.7283 32.3484 80.7283 45.3954Z" fill="white"/>
</svg>
