<?xml version="1.0" encoding="UTF-8"?>
<svg id="_Слой_1" data-name="Слой 1" xmlns="http://www.w3.org/2000/svg" viewBox="0 0 1127.21 1100.29">
  <polygon points="0 1098.98 0 1025.12 44.58 1025.12 44.58 1033.09 8.93 1033.09 8.93 1058.03 42.26 1058.03 42.26 1065.95 8.93 1065.95 8.93 1091.07 45.18 1091.07 45.18 1098.98 0 1098.98"/>
  <polygon points="65 1025.12 84.04 1055.89 84.64 1055.89 103.69 1025.12 114.22 1025.12 91.01 1062.08 114.22 1098.98 103.69 1098.98 84.64 1068.87 84.04 1068.87 65 1098.98 54.52 1098.98 78.27 1062.08 54.52 1025.12 65 1025.12"/>
  <path d="m184.1,1048.21h-8.93c-.54-2.56-1.43-4.82-2.8-6.79-1.31-1.96-2.86-3.57-4.76-4.88-1.85-1.37-3.93-2.38-6.19-3.04-2.26-.65-4.64-1.01-7.08-1.01-4.46,0-8.51,1.13-12.14,3.39-3.63,2.26-6.49,5.6-8.63,10s-3.15,9.82-3.15,16.19,1.07,11.79,3.15,16.19c2.14,4.4,5,7.74,8.63,10,3.63,2.26,7.68,3.39,12.14,3.39,2.44,0,4.82-.36,7.08-1.01,2.26-.65,4.35-1.67,6.19-2.98,1.9-1.37,3.45-2.98,4.76-4.94,1.31-1.96,2.26-4.23,2.8-6.79h8.93c-.65,3.75-1.9,7.14-3.69,10.12-1.79,2.98-3.99,5.54-6.61,7.62s-5.59,3.63-8.93,4.7c-3.27,1.07-6.79,1.61-10.48,1.61-6.31,0-11.9-1.55-16.78-4.64-4.88-3.09-8.75-7.44-11.55-13.15-2.8-5.65-4.23-12.38-4.23-20.18s1.43-14.52,4.23-20.18c2.8-5.65,6.67-10.06,11.55-13.15s10.54-4.64,16.78-4.64c3.75,0,7.2.54,10.48,1.61,3.27,1.07,6.25,2.68,8.93,4.76,2.62,2.08,4.88,4.58,6.61,7.56,1.79,2.98,2.98,6.31,3.69,10.12v.12Z"/>
  <polygon points="198.56 1098.98 198.56 1025.12 243.14 1025.12 243.14 1033.09 207.49 1033.09 207.49 1058.03 240.82 1058.03 240.82 1065.95 207.49 1065.95 207.49 1091.07 243.74 1091.07 243.74 1098.98 198.56 1098.98"/>
  <path d="m259.27,1098.98v-73.87h24.94c5.77,0,10.54,1.07,14.23,3.15s6.43,4.88,8.21,8.39c1.79,3.51,2.68,7.5,2.68,11.84s-.89,8.33-2.68,11.84c-1.73,3.57-4.46,6.37-8.15,8.51-3.69,2.08-8.39,3.15-14.17,3.15h-17.92v-7.92h17.62c3.99,0,7.14-.71,9.58-2.08,2.38-1.37,4.17-3.21,5.24-5.54,1.13-2.38,1.67-5,1.67-7.98s-.54-5.59-1.67-7.92c-1.07-2.32-2.86-4.17-5.24-5.48-2.44-1.37-5.65-2.02-9.64-2.02h-15.71v65.95h-8.93l-.06-.06Z"/>
  <polygon points="319.69 1033.09 319.69 1025.12 375.1 1025.12 375.1 1033.09 351.83 1033.09 351.83 1098.98 342.9 1098.98 342.9 1033.09 319.69 1033.09"/>
  <rect x="388.91" y="1025.12" width="8.93" height="73.87"/>
  <path d="m478.07,1062.08c0,7.8-1.43,14.52-4.23,20.18-2.8,5.65-6.67,10.06-11.55,13.15s-10.54,4.64-16.78,4.64-11.9-1.55-16.78-4.64-8.75-7.44-11.55-13.15-4.23-12.38-4.23-20.18,1.43-14.52,4.23-20.18c2.8-5.65,6.67-10.06,11.55-13.15s10.54-4.64,16.78-4.64,11.9,1.55,16.78,4.64,8.75,7.44,11.55,13.15c2.8,5.71,4.23,12.38,4.23,20.18Zm-8.63,0c0-6.37-1.07-11.79-3.21-16.19-2.14-4.4-5-7.74-8.63-10-3.63-2.26-7.62-3.39-12.14-3.39s-8.51,1.13-12.14,3.39c-3.63,2.26-6.49,5.6-8.63,10-2.14,4.4-3.15,9.82-3.15,16.19s1.07,11.79,3.15,16.19c2.14,4.4,5,7.74,8.63,10,3.63,2.26,7.68,3.39,12.14,3.39s8.51-1.13,12.14-3.39c3.63-2.26,6.49-5.59,8.63-10,2.14-4.4,3.21-9.82,3.21-16.19Z"/>
  <polygon points="551.7 1025.12 551.7 1098.98 543.01 1098.98 502.77 1041.01 502.06 1041.01 502.06 1098.98 493.13 1098.98 493.13 1025.12 501.76 1025.12 542.17 1083.27 542.89 1083.27 542.89 1025.12 551.7 1025.12"/>
  <path d="m572.59,1098.98h-9.4l27.14-73.87h9.23l27.14,73.87h-9.4l-22.08-62.2h-.6l-22.08,62.2h.06Zm3.51-28.87h37.8v7.92h-37.8v-7.92Z"/>
  <polygon points="638.24 1098.98 638.24 1025.12 647.17 1025.12 647.17 1091.07 681.51 1091.07 681.51 1098.98 638.24 1098.98"/>
  <path d="m764.31,1043.63c-.42-3.63-2.2-6.49-5.24-8.51-3.1-2.02-6.84-3.04-11.31-3.04-3.27,0-6.13.54-8.57,1.61-2.44,1.07-4.35,2.5-5.71,4.35-1.37,1.85-2.02,3.93-2.02,6.31,0,1.96.48,3.69,1.43,5.06.95,1.37,2.2,2.56,3.69,3.51,1.49.89,3.04,1.67,4.7,2.26,1.61.6,3.15,1.07,4.52,1.43l7.5,2.02c1.9.48,4.05,1.19,6.43,2.08,2.38.89,4.64,2.08,6.84,3.63,2.2,1.49,3.99,3.45,5.42,5.83,1.43,2.38,2.14,5.3,2.14,8.75,0,3.99-1.07,7.62-3.15,10.83s-5.12,5.77-9.11,7.68c-3.99,1.9-8.81,2.86-14.46,2.86-5.3,0-9.88-.83-13.75-2.56s-6.9-4.11-9.11-7.14c-2.2-3.04-3.45-6.61-3.69-10.65h9.23c.24,2.8,1.19,5.12,2.8,6.9,1.67,1.79,3.75,3.15,6.25,4.05,2.56.89,5.3,1.31,8.21,1.31,3.39,0,6.49-.54,9.23-1.67,2.74-1.13,4.88-2.68,6.43-4.7,1.61-2.02,2.38-4.4,2.38-7.08,0-2.44-.71-4.46-2.08-6.01-1.37-1.55-3.15-2.8-5.42-3.75-2.26-.95-4.64-1.79-7.26-2.5l-9.11-2.62c-5.77-1.67-10.36-4.05-13.69-7.08-3.39-3.1-5.06-7.08-5.06-12.08,0-4.11,1.13-7.74,3.33-10.83,2.26-3.1,5.3-5.54,9.11-7.2,3.81-1.73,8.09-2.62,12.8-2.62s8.99.83,12.68,2.56c3.69,1.67,6.61,3.99,8.81,6.9s3.33,6.25,3.45,10h-8.63v.12Z"/>
  <polygon points="788.65 1098.98 788.65 1025.12 833.23 1025.12 833.23 1033.09 797.64 1033.09 797.64 1058.03 830.91 1058.03 830.91 1065.95 797.64 1065.95 797.64 1091.07 833.83 1091.07 833.83 1098.98 788.65 1098.98"/>
  <path d="m849.36,1098.98v-73.87h24.94c5.77,0,10.54,1.01,14.23,2.98,3.69,1.96,6.43,4.64,8.21,8.04s2.68,7.32,2.68,11.67-.89,8.21-2.68,11.55c-1.79,3.39-4.52,6.01-8.21,7.92s-8.39,2.86-14.11,2.86h-20.18v-8.09h19.88c3.93,0,7.14-.6,9.52-1.73,2.44-1.13,4.17-2.8,5.24-4.88,1.13-2.14,1.67-4.7,1.67-7.62s-.54-5.54-1.67-7.74c-1.13-2.2-2.86-3.93-5.3-5.12-2.44-1.25-5.65-1.85-9.64-1.85h-15.71v65.95h-8.93l.06-.06Zm34.76-33.15l18.15,33.15h-10.42l-17.92-33.15h10.18Z"/>
  <polygon points="915.67 1025.12 937.57 1087.32 938.46 1087.32 960.37 1025.12 969.77 1025.12 942.63 1098.98 933.41 1098.98 906.32 1025.12 915.67 1025.12"/>
  <rect x="981.26" y="1025.12" width="8.93" height="73.87"/>
  <path d="m1067.57,1048.21h-8.93c-.54-2.56-1.43-4.82-2.8-6.79-1.31-1.96-2.86-3.57-4.76-4.88-1.85-1.37-3.93-2.38-6.19-3.04-2.26-.65-4.64-1.01-7.08-1.01-4.46,0-8.51,1.13-12.14,3.39-3.63,2.26-6.49,5.6-8.63,10-2.14,4.4-3.15,9.82-3.15,16.19s1.07,11.79,3.15,16.19c2.14,4.4,5,7.74,8.63,10,3.63,2.26,7.68,3.39,12.14,3.39,2.44,0,4.82-.36,7.08-1.01,2.26-.65,4.34-1.67,6.19-2.98,1.9-1.37,3.45-2.98,4.76-4.94,1.31-1.96,2.26-4.23,2.8-6.79h8.93c-.65,3.75-1.9,7.14-3.69,10.12s-3.99,5.54-6.61,7.62-5.59,3.63-8.93,4.7c-3.27,1.07-6.79,1.61-10.48,1.61-6.31,0-11.9-1.55-16.78-4.64-4.88-3.09-8.75-7.44-11.61-13.15-2.8-5.65-4.23-12.38-4.23-20.18s1.43-14.52,4.23-20.18,6.67-10.06,11.61-13.15c4.88-3.1,10.54-4.64,16.78-4.64,3.75,0,7.2.54,10.48,1.61,3.27,1.07,6.25,2.68,8.93,4.76,2.62,2.08,4.88,4.58,6.61,7.56,1.79,2.98,2.98,6.31,3.69,10.12v.12Z"/>
  <polygon points="1082.03 1098.98 1082.03 1025.12 1126.61 1025.12 1126.61 1033.09 1090.96 1033.09 1090.96 1058.03 1124.29 1058.03 1124.29 1065.95 1090.96 1065.95 1090.96 1091.07 1127.21 1091.07 1127.21 1098.98 1082.03 1098.98"/>
  <polygon points="53.87 963.69 53.87 899.05 92.91 899.05 92.91 906.02 61.72 906.02 61.72 927.86 90.89 927.86 90.89 934.77 61.72 934.77 61.72 956.73 93.39 956.73 93.39 963.69 53.87 963.69"/>
  <polygon points="107.02 963.69 107.02 899.05 114.82 899.05 114.82 956.73 144.87 956.73 144.87 963.69 107.02 963.69"/>
  <polygon points="157.02 963.69 157.02 899.05 196 899.05 196 906.02 164.81 906.02 164.81 927.86 193.98 927.86 193.98 934.77 164.81 934.77 164.81 956.73 196.48 956.73 196.48 963.69 157.02 963.69"/>
  <path d="m254.27,919.23c-.71-2.14-1.61-4.05-2.74-5.71-1.13-1.73-2.44-3.15-3.99-4.35-1.55-1.19-3.27-2.14-5.24-2.74-1.96-.65-4.11-.95-6.43-.95-3.81,0-7.32,1.01-10.42,2.98-3.15,1.96-5.65,4.88-7.5,8.75-1.85,3.87-2.8,8.57-2.8,14.17s.95,10.3,2.8,14.17c1.85,3.87,4.4,6.79,7.62,8.75,3.21,1.96,6.79,2.98,10.77,2.98,3.69,0,6.96-.77,9.76-2.38,2.86-1.61,5.06-3.87,6.61-6.73,1.61-2.92,2.38-6.37,2.38-10.3l2.38.48h-19.46v-6.96h24.64v6.96c0,5.3-1.13,9.94-3.39,13.87-2.26,3.93-5.36,6.96-9.34,9.17-3.93,2.14-8.51,3.21-13.63,3.21-5.71,0-10.77-1.37-15.06-4.05-4.29-2.68-7.68-6.55-10.12-11.49-2.38-4.94-3.57-10.83-3.57-17.68,0-5.12.65-9.7,2.02-13.81,1.37-4.11,3.33-7.62,5.89-10.48,2.5-2.86,5.54-5.12,8.99-6.61,3.45-1.55,7.26-2.32,11.37-2.32,3.39,0,6.61.54,9.52,1.55,2.98,1.01,5.59,2.44,7.92,4.35,2.32,1.85,4.29,4.05,5.83,6.67,1.55,2.56,2.62,5.42,3.21,8.57h-8.09l.06-.06Z"/>
  <path d="m268.56,963.69l23.75-64.64h8.09l23.75,64.64h-8.21l-19.28-54.4h-.48l-19.28,54.4h-8.33Zm11.25-25.24h33.09v6.96h-33.09v-6.96Z"/>
  <polygon points="385.46 899.05 385.46 963.69 377.9 963.69 342.66 912.92 342.01 912.92 342.01 963.69 334.21 963.69 334.21 899.05 341.77 899.05 377.12 949.94 377.72 949.94 377.72 899.05 385.46 899.05"/>
  <path d="m453.13,919.23h-7.8c-.48-2.26-1.25-4.23-2.44-5.95-1.13-1.73-2.5-3.15-4.17-4.29-1.61-1.19-3.39-2.08-5.42-2.68-1.96-.6-4.05-.89-6.19-.89-3.93,0-7.44,1.01-10.65,2.98-3.15,1.96-5.65,4.88-7.56,8.75-1.85,3.87-2.8,8.57-2.8,14.17s.95,10.3,2.8,14.17,4.4,6.79,7.56,8.75c3.15,1.96,6.73,2.98,10.65,2.98,2.14,0,4.23-.3,6.19-.89,1.96-.6,3.75-1.49,5.42-2.62,1.67-1.19,3.04-2.62,4.17-4.34,1.13-1.73,1.96-3.69,2.44-5.95h7.8c-.6,3.27-1.67,6.25-3.21,8.87-1.55,2.62-3.51,4.82-5.83,6.67-2.32,1.79-4.94,3.21-7.8,4.11-2.86.95-5.89,1.43-9.17,1.43-5.54,0-10.42-1.37-14.7-4.05-4.29-2.68-7.68-6.55-10.12-11.49-2.44-4.94-3.69-10.83-3.69-17.68s1.25-12.68,3.69-17.68c2.44-4.94,5.83-8.81,10.12-11.49,4.29-2.68,9.17-4.05,14.7-4.05,3.27,0,6.31.48,9.17,1.43s5.48,2.32,7.8,4.17c2.32,1.79,4.23,4.05,5.83,6.61,1.55,2.56,2.62,5.54,3.21,8.87v.12Z"/>
  <polygon points="465.75 963.69 465.75 899.05 504.74 899.05 504.74 906.02 473.61 906.02 473.61 927.86 502.71 927.86 502.71 934.77 473.61 934.77 473.61 956.73 505.27 956.73 505.27 963.69 465.75 963.69"/>
  <path d="m538.31,963.69l23.75-64.64h8.09l23.75,64.64h-8.21l-19.28-54.4h-.48l-19.28,54.4h-8.33Zm11.25-25.24h33.09v6.96h-33.09v-6.96Z"/>
  <polygon points="655.15 899.05 655.15 963.69 647.59 963.69 612.35 912.92 611.75 912.92 611.75 963.69 603.9 963.69 603.9 899.05 611.46 899.05 646.81 949.94 647.47 949.94 647.47 899.05 655.15 899.05"/>
  <path d="m690.74,963.69h-19.94v-64.64h20.83c6.25,0,11.61,1.31,16.07,3.87,4.46,2.56,7.86,6.25,10.24,11.07,2.38,4.82,3.57,10.54,3.57,17.2s-1.19,12.5-3.57,17.38c-2.38,4.82-5.89,8.57-10.48,11.19-4.58,2.56-10.18,3.87-16.73,3.87v.06Zm-12.08-6.96h11.61c5.36,0,9.76-1.01,13.27-3.1,3.51-2.08,6.13-5,7.86-8.81,1.73-3.81,2.56-8.33,2.56-13.63s-.83-9.7-2.56-13.45c-1.73-3.81-4.23-6.67-7.62-8.69s-7.62-3.04-12.68-3.04h-12.5v50.77l.06-.06Z"/>
  <path d="m779.6,963.69h-19.94v-64.64h20.83c6.25,0,11.61,1.31,16.07,3.87s7.86,6.25,10.24,11.07c2.38,4.82,3.57,10.54,3.57,17.2s-1.19,12.5-3.57,17.38c-2.38,4.82-5.89,8.57-10.48,11.19-4.58,2.56-10.18,3.87-16.73,3.87v.06Zm-12.08-6.96h11.61c5.36,0,9.76-1.01,13.27-3.1,3.51-2.08,6.13-5,7.86-8.81,1.73-3.81,2.56-8.33,2.56-13.63s-.83-9.7-2.56-13.45c-1.73-3.81-4.23-6.67-7.62-8.69s-7.62-3.04-12.68-3.04h-12.5v50.77l.06-.06Z"/>
  <polygon points="823.53 963.69 823.53 899.05 862.58 899.05 862.58 906.02 831.39 906.02 831.39 927.86 860.55 927.86 860.55 934.77 831.39 934.77 831.39 956.73 863.05 956.73 863.05 963.69 823.53 963.69"/>
  <path d="m912.04,915.24c-.36-3.21-1.9-5.65-4.58-7.44-2.68-1.79-6.01-2.68-9.88-2.68-2.86,0-5.36.48-7.5,1.37-2.14.95-3.81,2.2-5,3.81-1.19,1.61-1.79,3.45-1.79,5.54,0,1.73.42,3.21,1.25,4.46.83,1.19,1.9,2.26,3.21,3.04,1.31.77,2.68,1.49,4.11,1.96,1.43.48,2.74.89,3.93,1.25l6.55,1.79c1.67.42,3.57,1.07,5.59,1.85,2.08.77,4.05,1.85,5.95,3.21,1.9,1.31,3.51,3.04,4.76,5.12,1.25,2.08,1.85,4.64,1.85,7.68,0,3.51-.89,6.67-2.74,9.46-1.79,2.8-4.46,5.06-7.98,6.73-3.45,1.67-7.68,2.5-12.68,2.5-4.64,0-8.63-.77-12.02-2.26-3.39-1.49-6.01-3.57-7.98-6.25-1.9-2.68-2.98-5.77-3.27-9.29h8.09c.24,2.44,1.01,4.46,2.44,6.07,1.43,1.61,3.27,2.74,5.48,3.51,2.2.77,4.64,1.13,7.2,1.13,2.98,0,5.65-.48,8.04-1.43,2.38-1.01,4.29-2.38,5.65-4.11,1.37-1.79,2.08-3.81,2.08-6.19,0-2.14-.6-3.87-1.79-5.24-1.19-1.37-2.8-2.44-4.76-3.27s-4.05-1.61-6.37-2.2l-7.98-2.26c-5.06-1.43-9.05-3.51-11.96-6.19-2.92-2.68-4.4-6.19-4.4-10.59,0-3.63.95-6.79,2.92-9.46,1.96-2.74,4.64-4.82,7.98-6.31,3.33-1.49,7.08-2.26,11.19-2.26s7.86.77,11.13,2.26c3.21,1.49,5.83,3.51,7.68,6.07,1.9,2.56,2.92,5.48,3.04,8.75h-7.56l.12-.12Z"/>
  <rect x="933.35" y="899.05" width="7.8" height="64.64"/>
  <path d="m1001.02,919.23c-.71-2.14-1.61-4.05-2.74-5.71-1.13-1.73-2.44-3.15-3.99-4.35-1.55-1.19-3.27-2.14-5.24-2.74-1.96-.65-4.11-.95-6.43-.95-3.81,0-7.32,1.01-10.42,2.98-3.15,1.96-5.65,4.88-7.5,8.75s-2.8,8.57-2.8,14.17.95,10.3,2.8,14.17,4.4,6.79,7.62,8.75,6.79,2.98,10.77,2.98c3.69,0,6.96-.77,9.76-2.38,2.86-1.61,5.06-3.87,6.61-6.73,1.61-2.92,2.38-6.37,2.38-10.3l2.38.48h-19.46v-6.96h24.64v6.96c0,5.3-1.13,9.94-3.39,13.87-2.26,3.93-5.36,6.96-9.34,9.17-3.93,2.14-8.51,3.21-13.63,3.21-5.71,0-10.77-1.37-15.06-4.05-4.29-2.68-7.68-6.55-10.12-11.49-2.38-4.94-3.57-10.83-3.57-17.68,0-5.12.65-9.7,2.02-13.81,1.37-4.11,3.33-7.62,5.89-10.48,2.5-2.86,5.54-5.12,8.99-6.61,3.45-1.55,7.26-2.32,11.37-2.32,3.39,0,6.61.54,9.52,1.55,2.98,1.01,5.59,2.44,7.92,4.35,2.32,1.85,4.29,4.05,5.83,6.67,1.55,2.56,2.62,5.42,3.21,8.57h-8.09l.06-.06Z"/>
  <polygon points="1074.11 899.05 1074.11 963.69 1066.55 963.69 1031.38 912.92 1030.72 912.92 1030.72 963.69 1022.87 963.69 1022.87 899.05 1030.48 899.05 1065.84 949.94 1066.43 949.94 1066.43 899.05 1074.11 899.05"/>
  <path d="m132.79,845.31v-52.32h18.27c3.63,0,6.67.65,9.05,1.9s4.11,2.92,5.3,5.06c1.13,2.08,1.73,4.4,1.73,6.96,0,2.26-.42,4.11-1.19,5.59s-1.85,2.62-3.1,3.45c-1.25.83-2.68,1.49-4.17,1.9v.54c1.61.12,3.21.65,4.82,1.67,1.61,1.01,2.98,2.5,4.05,4.4s1.61,4.23,1.61,7.02-.6,5-1.79,7.08c-1.19,2.08-3.1,3.75-5.65,5-2.56,1.25-5.89,1.85-10.06,1.85h-18.93l.06-.12Zm6.37-5.6h12.56c4.17,0,7.08-.77,8.81-2.38,1.73-1.61,2.62-3.57,2.62-5.89,0-1.79-.48-3.39-1.37-4.88-.89-1.49-2.2-2.74-3.87-3.63-1.67-.89-3.63-1.37-5.95-1.37h-12.86v18.21l.06-.06Zm0-23.75h11.73c1.9,0,3.63-.36,5.18-1.13,1.55-.77,2.8-1.79,3.69-3.15.89-1.37,1.37-2.98,1.37-4.82,0-2.32-.77-4.23-2.38-5.83-1.61-1.61-4.17-2.44-7.62-2.44h-11.96v17.38Z"/>
  <path d="m223.74,819.18c0,5.54-1.01,10.3-2.98,14.28-1.96,4.05-4.7,7.14-8.21,9.29-3.45,2.2-7.44,3.27-11.9,3.27s-8.45-1.07-11.9-3.27c-3.45-2.2-6.19-5.3-8.21-9.29-1.96-4.05-2.98-8.81-2.98-14.28s1.01-10.3,2.98-14.29c1.96-4.05,4.7-7.14,8.21-9.29,3.45-2.2,7.44-3.27,11.9-3.27s8.45,1.07,11.9,3.27c3.45,2.2,6.19,5.3,8.21,9.29,1.96,4.05,2.98,8.81,2.98,14.29Zm-6.13,0c0-4.52-.77-8.33-2.26-11.49-1.49-3.1-3.51-5.48-6.13-7.08-2.56-1.61-5.42-2.38-8.57-2.38s-6.01.77-8.63,2.38c-2.56,1.61-4.58,3.99-6.13,7.08-1.49,3.1-2.26,6.96-2.26,11.49s.77,8.33,2.26,11.49c1.49,3.1,3.57,5.48,6.13,7.08,2.56,1.61,5.42,2.38,8.63,2.38s6.01-.77,8.57-2.38c2.56-1.61,4.58-3.99,6.13-7.08,1.49-3.1,2.26-6.96,2.26-11.49Z"/>
  <path d="m268.74,792.99h6.31v34.64c0,3.57-.83,6.79-2.5,9.58-1.67,2.8-4.05,5-7.08,6.61-3.04,1.61-6.61,2.38-10.71,2.38s-7.68-.77-10.71-2.38c-3.04-1.61-5.42-3.81-7.08-6.61s-2.5-6.01-2.5-9.58v-34.64h6.31v34.11c0,2.56.54,4.82,1.67,6.84,1.13,1.96,2.74,3.51,4.82,4.7,2.08,1.13,4.58,1.67,7.5,1.67s5.42-.54,7.5-1.67c2.08-1.13,3.69-2.68,4.82-4.7,1.13-1.96,1.67-4.29,1.67-6.84v-34.11Z"/>
  <polygon points="284.87 798.64 284.87 792.99 324.09 792.99 324.09 798.64 307.66 798.64 307.66 845.31 301.29 845.31 301.29 798.64 284.87 798.64"/>
  <rect x="333.85" y="792.99" width="6.31" height="52.32"/>
  <path d="m371.89,828.94h6.96l5.83,7.68,1.55,2.02,8.69,11.55h-6.96l-5.71-7.68-1.43-1.96-8.87-11.67-.06.06Zm25.18-9.76c0,5.54-1.01,10.3-2.98,14.28-1.96,4.05-4.7,7.14-8.21,9.29-3.45,2.2-7.44,3.27-11.9,3.27s-8.45-1.07-11.9-3.27-6.19-5.3-8.21-9.29c-1.96-4.05-2.98-8.81-2.98-14.28s1.01-10.3,2.98-14.29c1.96-4.05,4.7-7.14,8.21-9.29,3.45-2.2,7.44-3.27,11.9-3.27s8.45,1.07,11.9,3.27c3.45,2.2,6.19,5.3,8.21,9.29,1.96,4.05,2.98,8.81,2.98,14.29Zm-6.13,0c0-4.52-.77-8.33-2.26-11.49-1.49-3.1-3.51-5.48-6.13-7.08-2.56-1.61-5.42-2.38-8.57-2.38s-6.01.77-8.63,2.38c-2.56,1.61-4.58,3.99-6.13,7.08-1.49,3.1-2.26,6.96-2.26,11.49s.77,8.33,2.26,11.49c1.49,3.1,3.57,5.48,6.13,7.08,2.56,1.61,5.42,2.38,8.63,2.38s6.01-.77,8.57-2.38c2.56-1.61,4.58-3.99,6.13-7.08,1.49-3.1,2.26-6.96,2.26-11.49Z"/>
  <path d="m442,792.99h6.31v34.64c0,3.57-.83,6.79-2.5,9.58-1.67,2.8-4.05,5-7.08,6.61s-6.61,2.38-10.71,2.38-7.68-.77-10.71-2.38-5.42-3.81-7.08-6.61c-1.67-2.8-2.5-6.01-2.5-9.58v-34.64h6.31v34.11c0,2.56.54,4.82,1.67,6.84,1.13,1.96,2.74,3.51,4.82,4.7,2.08,1.13,4.58,1.67,7.5,1.67s5.42-.54,7.5-1.67c2.08-1.13,3.69-2.68,4.82-4.7,1.13-1.96,1.67-4.29,1.67-6.84v-34.11Z"/>
  <polygon points="460.99 845.31 460.99 792.99 492.59 792.99 492.59 798.64 467.36 798.64 467.36 816.32 490.99 816.32 490.99 821.91 467.36 821.91 467.36 839.71 493.01 839.71 493.01 845.31 460.99 845.31"/>
  <path d="m526.4,845.31h-6.67l19.23-52.32h6.55l19.23,52.32h-6.67l-15.65-44.05h-.42l-15.65,44.05h.06Zm2.44-20.42h26.78v5.59h-26.78v-5.59Z"/>
  <path d="m572.89,792.99h17.68c4.11,0,7.44.71,10.06,2.2,2.62,1.49,4.58,3.45,5.83,5.95s1.9,5.3,1.9,8.39-.65,5.89-1.9,8.39-3.15,4.52-5.77,6.01c-2.62,1.49-5.95,2.2-10,2.2h-12.68v-5.59h12.44c2.8,0,5.06-.48,6.79-1.43,1.73-.95,2.92-2.26,3.69-3.93.77-1.67,1.19-3.57,1.19-5.65s-.42-3.99-1.19-5.59c-.77-1.67-2.02-2.98-3.75-3.87-1.73-.95-3.99-1.43-6.84-1.43h-11.13v46.72h-6.31v-52.38Z"/>
  <path d="m615.33,845.31h-6.67l19.23-52.32h6.55l19.23,52.32h-6.67l-15.65-44.05h-.42l-15.65,44.05h.06Zm2.44-20.42h26.78v5.59h-26.78v-5.59Z"/>
  <path d="m661.81,845.31v-52.32h17.68c4.11,0,7.44.71,10.06,2.08,2.62,1.37,4.58,3.27,5.83,5.71s1.9,5.18,1.9,8.27-.65,5.83-1.9,8.21c-1.25,2.38-3.21,4.29-5.77,5.6-2.62,1.37-5.95,2.02-10,2.02h-14.29v-5.71h14.11c2.8,0,5.06-.42,6.73-1.25,1.73-.83,2.98-1.96,3.75-3.45.77-1.49,1.19-3.33,1.19-5.42s-.42-3.93-1.19-5.48c-.77-1.55-2.02-2.8-3.75-3.63-1.73-.89-3.99-1.31-6.84-1.31h-11.13v46.72h-6.31l-.06-.06Zm24.58-23.51l12.86,23.51h-7.38l-12.68-23.51h7.2Z"/>
  <polygon points="704.96 798.64 704.96 792.99 744.19 792.99 744.19 798.64 727.76 798.64 727.76 845.31 721.39 845.31 721.39 798.64 704.96 798.64"/>
  <polygon points="753.95 792.99 761.51 792.99 779.31 836.44 779.9 836.44 797.7 792.99 805.26 792.99 805.26 845.31 799.36 845.31 799.36 805.55 798.83 805.55 782.46 845.31 776.75 845.31 760.38 805.55 759.9 805.55 759.9 845.31 753.95 845.31 753.95 792.99"/>
  <polygon points="817.99 845.31 817.99 792.99 849.54 792.99 849.54 798.64 824.3 798.64 824.3 816.32 847.93 816.32 847.93 821.91 824.3 821.91 824.3 839.71 849.96 839.71 849.96 845.31 817.99 845.31"/>
  <polygon points="902.45 792.99 902.45 845.31 896.32 845.31 867.81 804.24 867.28 804.24 867.28 845.31 860.97 845.31 860.97 792.99 867.1 792.99 895.73 834.18 896.2 834.18 896.2 792.99 902.45 792.99"/>
  <polygon points="912.28 798.64 912.28 792.99 951.5 792.99 951.5 798.64 935.07 798.64 935.07 845.31 928.7 845.31 928.7 798.64 912.28 798.64"/>
  <path d="m989.89,806.08c-.3-2.56-1.55-4.58-3.75-6.01-2.2-1.43-4.88-2.14-8.04-2.14-2.32,0-4.35.36-6.07,1.13-1.73.77-3.1,1.79-4.05,3.1-.95,1.31-1.43,2.8-1.43,4.46,0,1.37.36,2.62,1.01,3.63s1.55,1.79,2.62,2.5c1.07.65,2.14,1.19,3.33,1.61,1.13.42,2.2.71,3.21,1.01l5.3,1.43c1.37.36,2.86.83,4.52,1.49,1.67.65,3.27,1.49,4.82,2.56,1.55,1.07,2.8,2.44,3.81,4.17,1.01,1.73,1.49,3.75,1.49,6.19,0,2.8-.71,5.36-2.2,7.68-1.49,2.26-3.63,4.11-6.43,5.42-2.8,1.37-6.25,2.02-10.24,2.02-3.75,0-6.96-.6-9.76-1.79-2.74-1.19-4.88-2.92-6.43-5.06s-2.44-4.7-2.62-7.56h6.55c.18,1.96.83,3.63,1.96,4.88,1.19,1.25,2.68,2.2,4.46,2.86,1.79.6,3.75.89,5.83.89,2.44,0,4.58-.42,6.49-1.19,1.9-.77,3.45-1.9,4.58-3.33,1.13-1.43,1.67-3.1,1.67-5,0-1.73-.48-3.15-1.43-4.23-.95-1.07-2.26-1.96-3.81-2.68-1.61-.65-3.27-1.25-5.12-1.79l-6.43-1.85c-4.11-1.19-7.32-2.86-9.7-5.06-2.38-2.2-3.57-5.06-3.57-8.57,0-2.92.77-5.48,2.38-7.68s3.75-3.93,6.43-5.12c2.68-1.25,5.71-1.85,9.05-1.85s6.37.6,8.99,1.79c2.62,1.19,4.7,2.8,6.25,4.88,1.55,2.08,2.38,4.46,2.44,7.08h-6.13v.12Z"/>
  <path d="m152.02,591.87h22.92l33.93,99.82,33.69-99.82h22.68v118.09h-15.18v-69.7c0-2.44,0-6.43.18-11.96.12-5.59.18-11.55.18-17.92l-33.69,99.58h-15.83l-33.93-99.58v3.63c0,2.92,0,7.32.18,13.27.18,5.89.24,10.24.24,13.04v69.7h-15.3v-118.09l-.06-.06Z"/>
  <path d="m344.45,645.91c7.5,0,13.39-1.49,17.74-4.52,4.4-2.98,6.61-8.39,6.61-16.25,0-8.39-3.04-14.17-9.17-17.2-3.27-1.61-7.62-2.44-13.09-2.44h-39.05v40.36h36.96v.06Zm-52.97-54.04h54.64c8.99,0,16.43,1.31,22.26,3.93,11.07,5.06,16.67,14.34,16.67,27.92,0,7.08-1.49,12.86-4.4,17.38-2.92,4.52-6.96,8.09-12.2,10.83,4.58,1.9,8.04,4.35,10.36,7.38,2.38,3.04,3.69,8.04,3.93,14.88l.54,15.83c.18,4.52.54,7.86,1.13,10.06.95,3.75,2.68,6.19,5.12,7.26v2.68h-19.58c-.54-1.01-.95-2.32-1.31-3.93-.3-1.61-.6-4.7-.83-9.34l-.95-19.7c-.36-7.74-3.21-12.86-8.57-15.53-3.04-1.43-7.86-2.14-14.4-2.14h-36.43v50.65h-16.01v-118.09l.06-.06Z"/>
  <rect x="409.98" y="692.4" width="16.78" height="17.5"/>
  <polygon points="501.64 591.87 587.71 591.87 587.71 606.33 517.24 606.33 517.24 642.16 582.41 642.16 582.41 655.79 517.24 655.79 517.24 695.85 588.9 695.85 588.9 709.9 501.64 709.9 501.64 591.87"/>
  <rect x="613.48" y="591.87" width="16.13" height="118.09"/>
  <path d="m706.75,588.77c11.07,0,20.65,2.14,28.75,6.43,11.73,6.19,18.93,16.96,21.55,32.38h-15.83c-1.9-8.63-5.89-14.88-11.96-18.81-6.07-3.99-13.69-5.95-22.92-5.95-10.95,0-20.12,4.11-27.62,12.32-7.44,8.21-11.19,20.42-11.19,36.66,0,14.05,3.1,25.47,9.23,34.34,6.19,8.81,16.19,13.15,30.12,13.15,10.65,0,19.46-3.1,26.43-9.23,7.02-6.19,10.59-16.25,10.77-30.06h-36.96v-13.27h51.84v63.15h-10.3l-3.87-15.18c-5.42,5.95-10.18,10.06-14.4,12.38-7.02,3.99-15.95,5.95-26.78,5.95-13.99,0-26.01-4.52-36.07-13.57-11.01-11.37-16.49-26.96-16.49-46.78s5.36-35.47,16.07-47.2c10.18-11.13,23.33-16.73,39.52-16.73h.12Z"/>
  <polygon points="784.19 591.87 800.38 591.87 800.38 640.61 861.74 640.61 861.74 591.87 877.93 591.87 877.93 709.9 861.74 709.9 861.74 654.72 800.38 654.72 800.38 709.9 784.19 709.9 784.19 591.87"/>
  <polygon points="988.64 591.87 988.64 605.91 948.88 605.91 948.88 709.9 932.63 709.9 932.63 605.91 892.87 605.91 892.87 591.87 988.64 591.87"/>
  <path d="m680.86,149.33c-2.44-.65-2.92-2.38-2.86-4.58v-17.14c-.12-1.07-.18-2.2-.12-3.27.18-2.62-.24-5.18-.42-7.8-.3-.36-.77-.6-1.49-.6h-15.71c-1.19,0-2.32,0-3.15-1.07-.65-.83-1.49-.65-2.2-.12-1.37,1.01-2.86,1.19-4.46,1.19h-5c-2.92,0-4.35,1.49-4.35,4.46v24.88c0,1.79-.6,3.15-2.44,3.87-.77.3-1.61.95-2.02,1.67-.36.6-.42,1.67-.12,2.32.42.83,1.43.65,2.26.36.48-.18.83-.6,1.25-.71,1.31-.42,2.74-1.19,4.05-1.01,3.69.48,7.32,1.25,10.95,2.14,2.68.65,5.3.65,7.92.3,3.45-.54,6.84-1.25,10.18-2.14,2.38-.65,4.4-.12,6.43.95.95.48,1.79,1.01,2.74.18.65-.6.54-1.9-.3-2.98-.3-.36-.71-.83-1.07-.95l-.06.06Z"/>
  <path d="m728.77,149.21c-2.14-2.44-4.88-3.33-8.04-3.21-2.68.12-5.3.3-7.92.65-5,.71-8.69-1.55-11.84-4.94-2.8-3.04-5.12-6.55-6.73-10.36-1.07-2.56-1.43-5.36-2.08-8.04-.36-1.31-.95-2.56-1.31-3.81-.42-1.43-.6-3.04-.77-4.52-.42-2.5-.77-5.06-1.13-7.56h-3.93c-.95,1.37-.6,2.62-.42,3.81.36,2.38.77,4.82,1.07,7.2.48,2.2,1.01,4.46,1.19,6.73v.18c.71,2.8,1.25,5.71,2.44,8.27,2.2,4.76,3.99,9.76,7.5,13.87,3.39,3.93,6.9,7.56,11.9,9.4.65.24,1.31.65,1.9,1.01,0,.54.12.95.12,1.37-.18,3.99,1.55,6.84,5.18,8.51,5.42,2.44,11.49.77,14.52-5.12,1.37-2.56,1.19-5.3.95-8.04-.18-2.14-1.19-3.87-2.62-5.48v.06Z"/>
  <path d="m560.98,300.33h311.95c4.64,0,4.94.3,4.94,4.94v2.98c-.12,1.43-.54,1.9-1.96,2.08-.83.12-1.67.06-2.5.06h-267.55c-1.49,0-2.98.06-4.46.06s-2.5.65-3.15,2.02c-.36.83-.71,1.67-1.13,2.44-1.07,2.08-2.74,3.27-5.12,3.33h-1.49c-2.68.18-4.52-.65-5.95-3.33-2.62-4.88-2.08-4.58-7.92-4.58-11.25,0-22.44.06-33.63,0-2.44,0-3.93.77-4.88,2.98-.48,1.07-1.13,1.96-1.67,3.04-.6,1.13-1.55,1.73-2.74,1.79-1.43.12-2.8.12-4.23.06-1.55-.06-2.86-.77-3.75-2.14-.65-1.07-1.37-2.08-1.9-3.15-.89-1.85-2.32-2.56-4.4-2.56H247.13c-2.32,0-2.74-.48-2.8-2.8v-4.23c.06-2.02.83-2.86,2.92-2.98,2.5-.12,5,0,7.5,0h306.47-.24Z"/>
  <path d="m698.36,79.15c-.12,1.19,0,2.14-.3,2.98-1.55,4.64-2.38,9.46-3.15,14.34,0,.36-.06.65-.12,1.01-.48,2.02-.95,2.44-3.1,2.44h-262.84c-1.9,0-2.14-.18-2.56-2.02-.6-2.74-1.01-5.54-1.61-8.27-.54-2.44-1.19-4.82-1.79-7.2-.24-.95-.3-1.9-.48-3.1,1.25-.18,2.2-.42,3.15-.42h267.37c1.73,0,3.39.12,5.42.24Z"/>
  <path d="m722.05,179.39c0-1.01-.12-1.67-.12-2.32,0-1.19.54-1.79,1.73-1.96,3.93-.6,6.79-2.62,8.21-6.31.95-2.5,2.56-2.98,5-2.98,21.96.06,43.87,0,65.83,0h80.29c4.4,0,4.52.12,4.58,4.4,0,2.32.06,4.64,0,6.96-.06,1.96-.48,2.26-2.44,2.32h-160.29c-.83,0-1.61-.12-2.68-.18l-.12.06Z"/>
  <path d="m314.92,179.51h-78.03c-3.45,0-3.69-.24-3.75-3.63v-6.96c0-2.32.6-2.98,2.92-3.1,2.5-.06,5,0,7.5,0h139.81c1.49,0,2.5.83,3.1,2.14.3.6.48,1.19.77,1.79,1.37,3.1,3.99,4.46,7.08,5.24.89.18,1.85.3,2.2,1.31.71,1.79-.12,3.1-2.08,3.15h-79.52v.06Z"/>
  <path d="m460.75,115.94h16.49c1.67.18,2.02.54,2.14,2.14v27.14c0,2.08.36,3.57,2.62,4.05.83.18,1.61.71,1.61,1.67,0,.83.12,1.96-.3,2.56-.65.77-1.73.24-2.5-.24-2.02-1.31-4.11-1.73-6.61-1.07-3.45.89-6.96,1.55-10.48,2.08-2.56.42-5.12.3-7.68-.3-3.63-.83-7.26-1.61-10.95-2.02-1.37-.18-2.86.65-4.29,1.01-.36.12-.71.48-1.07.6-.83.3-1.79.36-2.26-.48-.3-.54-.24-1.49.12-2.02.42-.71,1.19-1.49,1.96-1.79,2.2-.83,2.68-2.38,2.62-4.52-.06-7.98,0-15.95,0-23.87v-2.26c.12-2.14.48-2.62,2.68-2.68h15.95-.06Z"/>
  <path d="m291.24,332.24c.83.36,1.25.48,1.49.71.36.36.89.95.83,1.31-.12.54-.65,1.13-1.19,1.37-.77.36-1.61.12-2.2-.65-.6-.77-.77-1.43-.3-2.26.83-1.55,2.26-2.38,3.93-2.8,2.8-.6,2.92-.71,2.92-3.57v-4.23c.12-1.43.42-1.67,1.85-1.79h30.65c2.38,0,3.45.48,3.45,3.33,0,1.07,0,2.14.06,3.21.12,2.26.3,2.5,2.44,3.04,1.61.42,3.15.83,4.05,2.56.71,1.31.65,2.32-.42,3.04-1.01.65-1.67.42-2.86-1.25.6-.6,1.19-1.19,1.96-1.96-.95-.77-2.02-.71-2.86-.06-.77.6-1.31,1.55-.71,2.62.24.42.3,1.01.65,1.37,1.55,1.79,1.55,3.93,1.49,6.13,0,19.23-.06,38.51-.12,57.74v1.25c-.12,2.08-.77,2.74-2.74,2.74s-2.56-.65-2.68-2.74v-57.26c0-2.74-.3-3.1-3.15-3.15-1.73,0-3.51,0-5.24-.06-1.85-.12-2.38-.65-2.08-2.56.36-2.26.89-4.52,1.37-6.79,0-.24.18-.48.18-.71.77-3.33.3-3.93-3.15-3.93h-9.46c-2.38,0-2.74.54-2.26,2.92.42,2.08.95,4.23,1.43,6.31.12.42.18.83.24,1.19.54,3.04.06,3.57-2.92,3.63h-4.46c-1.79.12-2.32.71-2.38,2.5-.06,2.38,0,4.82,0,7.2v49.76c0,3.63-.71,4.23-4.23,3.63-1.19-.18-1.79-.83-1.9-1.96-.06-.65-.06-1.31-.06-1.96v-59.22c0-1.49.12-2.8,1.31-3.81.36-.3.6-.77.83-1.19.6-1.01.65-2.02-.12-3.04-.83-1.07-1.85-1.25-3.57-.42l-.06-.18Z"/>
  <path d="m684.01,331.7h-1.49c-2.02.12-3.39,2.32-2.08,3.87,1.9,2.26,1.67,4.76,1.67,7.26v58.21c-.06,2.62-.6,3.1-3.15,2.86-1.31-.12-1.96-.65-2.2-1.96-.12-.83-.06-1.67-.06-2.5v-54.76c0-3.93-.12-4.05-4.05-4.05h-3.75c-2.62,0-3.21-.71-2.74-3.39.36-2.14.83-4.23,1.31-6.31,0-.24.12-.48.18-.71.71-3.21.48-3.57-2.92-3.57h-11.37c-1.07,1.49-.54,2.92-.3,4.23.48,2.62.95,5.18,1.37,7.8.18,1.25-.36,1.79-1.73,1.9-1.31.12-2.68,0-3.99.06-3.15.12-3.81.71-3.81,3.87v54.22c0,1.01,0,2.02-.12,2.98-.18,1.67-.6,1.96-2.2,2.08h-.48c-2.98.12-3.51-.36-3.51-3.33v-60.24c0-1.43.3-2.56,1.25-3.63.42-.48.77-1.07.95-1.73.65-2.32-.71-3.57-3.63-2.98.77.77,1.43,1.43,2.08,2.08-.54,1.19-1.31,1.96-2.5,1.55-.65-.24-1.25-1.07-1.49-1.79-.3-.89,1.13-2.92,2.14-3.27.95-.3,1.9-.6,2.86-.83,1.49-.36,2.02-1.31,2.02-2.74s0-2.98.06-4.46c.12-1.96.36-2.32,2.38-2.32,3.75-.06,7.5,0,11.25,0h19.17c2.5,0,3.04.54,3.15,3.04.06,1.25,0,2.5.12,3.75.12,1.85.48,2.26,2.26,2.8.95.3,1.9.6,2.8,1.01.18.12.24.54.36.83h.06l.12.18Z"/>
  <path d="m782.64,331.64c.54-1.43,1.96-1.31,3.1-1.67,2.14-.65,2.32-.77,2.5-3.04.12-1.43.12-2.8.24-4.23.18-1.96.54-2.32,2.44-2.32h30.42c2.26,0,2.68.54,2.8,2.86,0,1.31,0,2.68.12,3.99.12,1.79.42,2.14,2.08,2.62.77.24,1.61.54,2.38.71,1.37.36,1.9,1.55,2.38,2.68.36.83,0,1.73-.83,2.14-.6.3-1.43.36-2.08.18-.42-.12-.83-.83-.89-1.31,0-.3.48-.77.77-1.07s.71-.48,1.25-.83c-1.01-.83-1.96-.95-2.62-.3-.6.6-.95,1.61-.95,2.38s.48,1.61,1.01,2.2c1.13,1.19,1.31,2.56,1.31,4.11v61.19c-.06,1.19-.71,1.85-1.9,1.9-1.25.06-2.44,0-3.99,0-.18-1.49-.48-2.8-.48-4.05v-51.25c0-1.85,0-3.63-.12-5.48-.18-1.85-.71-2.32-2.56-2.38-1.67-.06-3.33,0-5-.06-1.96-.12-2.38-.83-1.96-2.74.65-2.8,1.25-5.65,1.73-8.51.12-.77,0-1.61,0-2.5-.77-.12-1.37-.3-1.9-.3h-11.19c-2.14.12-2.44.6-1.96,2.62.6,2.5,1.07,5,1.61,7.56.06.3.12.65.18,1.01.3,2.38-.12,2.86-2.44,2.92h-5.48c-2.14.06-2.44.36-2.5,2.5-.12,2.56-.12,5.12-.12,7.68v50.24c-.18,2.44-1.67,3.45-3.93,2.56-.54-.18-1.01-.83-1.19-1.43-.24-.77-.12-1.67-.12-2.44v-58.99c0-1.67.12-3.27,1.13-4.7.36-.48.54-1.01.65-1.61.42-1.61-.42-2.74-2.08-2.92-.6-.06-1.13-.12-1.73-.18v.06l-.06.18Z"/>
  <path d="m886.15,185.82c-.24.77-.24,1.67-.65,2.2-1.43,1.79-2.92,3.57-4.52,5.18-.42.42-1.37.54-2.02.6-2.56.06-5.18,0-7.74,0h-134.87c-1.19,0-2.32-.12-3.51,0-2.14.24-3.75-.6-5-2.2-1.07-1.37-1.96-2.86-2.86-4.35-.24-.36-.12-.95-.12-1.25.18-.24.24-.3.3-.36.06,0,.12-.12.18-.12.65-.06,1.31-.18,1.96-.18h157.79c.24,0,.48.12,1.01.36l.06.12Z"/>
  <path d="m235.11,185.76c2.68-.54,159.16-.42,161.3.12-1.25,2.92-2.68,5.65-5.36,7.44-.54.36-1.25.42-1.9.42-1.73.06-3.51.06-5.24.06h-139.64c-1.43-.18-3.27.12-4.29-.65-2.26-1.73-4.35-3.81-5.06-6.84,0-.12.06-.3.18-.65v.12Z"/>
  <path d="m439.74,331.88c-1.01-.12-2.02-.24-3.33-.36,1.07-1.19,2.32-1.25,3.39-1.61,1.96-.65,2.26-.95,2.32-2.92,0-1.25,0-2.5.06-3.75.12-2.32.71-2.92,3.04-2.92h29.94c2.74,0,3.1.42,3.15,3.27v3.75c.12,1.73.65,2.32,2.32,2.68.54.12,1.13.3,1.67.42,1.25.18,2.02.95,2.56,2.08.6,1.43.54,2.32-.54,3.04-1.07.65-1.96.3-3.15-1.67.71-.42,1.49-.95,2.44-1.55-2.44-.71-2.68-.65-3.57.54-.83,1.19-.95,1.79.18,3.1,1.85,2.14,1.85,4.7,1.85,7.32,0,16.61-.06,33.21-.12,49.76,0,2.38.06,4.82.12,7.2.12,3.33-1.19,4.4-4.52,3.57-.95-1.13-.77-2.56-.77-3.99v-56.01c-.12-2.32-.65-2.86-3.04-2.98-1.67-.06-3.33,0-5,0-.83,0-1.61-.12-2.44-.18-.83-1.43-.48-2.74-.3-4.05.24-1.79.6-3.57.89-5.36.18-.89.48-1.79.6-2.68.12-.89-.18-1.79-1.19-1.79h-13.57c-1.07,1.9-.3,3.51,0,5.06.42,2.02,1.01,4.05,1.43,6.07.42,2.02-.18,2.74-2.26,2.86-1.49.06-2.98,0-4.46.06-1.85.12-2.32.48-2.5,2.38-.12,1.07-.24,2.14-.24,3.21,0,17.62.06,35.18.12,52.79v1.25c0,3.33-.48,3.69-3.81,3.57-1.85-.06-2.14-.36-2.26-2.2v-60.24c0-2.02,0-3.99,1.25-5.71.95-1.31.42-2.5-.3-3.93l.06-.12Z"/>
  <path d="m573.96,323.31c.54,2.92.48,78.45-.06,80.59-.77.18-1.67.48-2.56.48-2.5,0-5,0-7.5-.06-2.02-.12-2.8-.89-3.04-2.92-.06-.65,0-1.31,0-1.96v-69.7c0-1.43,0-2.8.12-4.23.06-1.19.54-2.2,1.79-2.38,3.69-.36,7.44-.18,11.19.12l.06.06Z"/>
  <path d="m552.41,263.73c.77,1.55.71,3.33,0,4.76-1.31,2.74-.3,5.06.95,7.26.65,1.19.71,1.9.06,2.86-.18.3-.42.48-.6.77-1.19,1.96-.95,3.69.71,5.24,1.61,1.49,2.98,1.43,4.46-.18,1.79-2.02,2.02-3.21.36-5.24-1.13-1.43-1.07-2.44-.12-3.99,1.25-1.96,1.85-4.23.77-6.61-.42-.95-.54-2.08-.6-3.15-.06-1.43.65-2.02,2.2-2.08,1.73-.06,2.5.48,2.56,1.96,0,.83-.12,1.67-.3,2.44-.6,2.92-.77,5.71,1.07,8.33.71,1.07.06,1.96-.54,2.92-1.43,2.2-1.19,3.81.6,5.59s4.52,1.07,5.18-1.43c.42-1.49.42-2.98-.54-4.29-.77-1.13-.77-2.14-.06-3.39,1.01-1.85,1.19-3.93.83-6.01-.3-1.85-.71-3.75-.12-5.77.54-.12,1.07-.36,1.61-.36,2.26,0,2.98.83,2.62,3.1-.12.65-.12,1.37-.42,1.9-1.31,2.56-.48,4.88.83,7.02.77,1.25.71,2.32,0,3.45-.24.36-.48.71-.71,1.01-.77,1.07-.71,2.08-.12,3.21,1.25,2.32,2.86,3.15,4.52,2.32,2.38-1.25,3.27-4.05,1.67-6.07-1.25-1.55-1.25-2.68-.06-4.35,1.25-1.79,1.37-4.05.71-6.25-.3-1.13-.6-2.26-.65-3.39,0-.6.48-1.55,1.01-1.79,1.07-.42,2.32-.6,3.27.3.6.6.95,1.31.6,2.26-.3.65-.48,1.43-.77,2.08-1.31,2.8-.77,5.36,1.25,7.56.89.95.89,1.67.12,2.56-.12.12-.18.3-.3.42-2.26,2.74-2.26,3.21.06,5.77.48.54,1.01,1.07,1.49,1.55.18-.18.42-.24.42-.36.65-3.21.83-3.39,4.23-3.45h6.25c2.26.06,2.98.77,3.04,3.04.06,1.55.06,3.15,0,4.7-.06,1.85-.48,2.26-2.2,2.26-3.75,0-7.5-.12-11.19-.18-3.75,0-7.44.12-11.19.12h-41.84c-2.98,0-6.01.06-8.99,0-2.02,0-2.5-.48-2.62-2.44-.12-1.55-.12-3.15,0-4.7.12-2.02,1.01-2.86,2.98-2.86,3.15,0,6.31,0,9.58.06.36,1.37.6,2.44,1.01,3.93.95-.95,1.85-1.67,2.5-2.56,1.13-1.49,1.07-3.1,0-4.58-.54-.71-1.01-1.43-1.43-2.02.77-1.43,1.55-2.62,2.08-3.87.6-1.49.6-3.04,0-4.58-.42-1.13-.48-2.44-.48-3.69s.6-1.73,1.9-1.79c1.37-.06,2.32.42,2.38,1.61.06,1.07,0,2.2-.36,3.15-1.01,2.98-.95,5.71,1.55,7.98.6.54.54,1.19.12,1.79-.36.48-.77.83-1.13,1.31-1.43,1.73-1.37,3.27.12,4.88.42.42.89.77,1.31,1.13,1.01.77,1.96.71,2.98,0,2.44-1.67,2.86-3.75,1.19-6.13q-1.25-1.85-.12-3.69c1.37-2.2,1.96-4.58.77-7.08-.12-.24-.18-.48-.24-.71-.95-3.39.18-4.64,3.81-3.87l-.06.3Z"/>
  <path d="m546.58,363.6v-36.31c0-3.99.24-4.17,4.29-4.23h6.25c1.67,0,2.02.36,2.26,2.02.18,1.73.3,3.45.3,5.18v69.16c0,4.64-.24,4.88-4.94,4.88h-4.46c-3.04-.12-3.63-.71-3.63-3.75v-37.08l-.06.12Z"/>
  <path d="m432.06,107.31c.95,0,1.79-.12,2.56-.12,1.49,0,2.14.65,2.14,2.14,0,.65-.18,1.31-.24,1.96-.18,1.25-.3,2.44-.48,3.69-.54,2.86-1.07,5.65-1.67,8.51-.36,1.85-1.07,3.63-1.31,5.48-.3,2.32-1.25,4.46-2.02,6.61-2.26,5.89-5.36,11.25-9.82,15.65-2.8,2.8-6.07,5.06-9.94,6.31-.3.12-.6.24-1.01.42,0,.65-.18,1.31-.12,1.96.3,3.99-2.02,6.43-5.24,7.98-4.4,2.14-10,1.31-13.57-3.69-3.69-5.18-3.21-11.31,1.55-15.59,1.9-1.73,3.87-2.44,6.25-2.5,2.08,0,4.17.12,6.19.24,1.07.06,2.14.36,3.21.36,3.45.18,6.43-.6,9.11-3.04,4.76-4.46,8.04-9.76,10.12-15.89,2.02-5.95,3.15-12.02,3.75-18.21.06-.71.3-1.43.48-2.26h.06Z"/>
  <path d="m535.33,361.88v38.81c0,3.69-.06,3.75-3.81,3.57h-2.02c-2.08-.12-2.56-.6-2.62-2.74v-78.57c0-2.68.77-3.39,3.33-3.51h2.5c2.14.12,2.56.48,2.56,2.74v39.82l.06-.12Z"/>
  <path d="m586.58,361.64v-40.3c0-1.01.6-1.55,1.43-1.73.89-.18,1.79-.24,2.74-.24,3.69,0,4.46.83,4.4,4.23-.06,25.71,0,51.37,0,77.08v1.49c-.18,1.43-.65,1.9-2.08,2.02-1.55.06-3.15,0-4.7,0-1.13,0-1.67-.6-1.73-1.73v-40.77l-.06-.06Z"/>
  <path d="m326.77,344.08c.06,1.31.18,2.2.18,3.1v53.03c0,3.69,0,3.75-3.75,3.75h-3.99c-3.21,0-3.63-.48-3.69-3.57v-53.03c0-.6,0-1.19.06-1.73.18-.89.71-1.55,1.67-1.55h9.52Z"/>
  <path d="m648.66,373.54v-27.86c0-1.01.54-1.55,1.55-1.55,2.56,0,5.12-.12,7.74,0,1.37,0,1.85.65,1.96,2.08.06.83,0,1.67,0,2.5v50.95c0,4.17-.12,4.29-4.35,4.29h-3.21c-3.27,0-3.57-.36-3.63-3.57v-26.84h-.06Z"/>
  <path d="m448.55,373.6v-27.62c.12-1.61.36-1.9,1.96-1.96,2.32-.06,4.64-.06,6.96,0,1.85.06,2.26.54,2.32,2.44v52.97c0,4.11-.3,4.4-4.35,4.4h-4.23c-2.08-.06-2.56-.6-2.68-2.68v-27.62.06Z"/>
  <path d="m673.3,373.84v27.56c-.18,1.9-.77,2.44-2.68,2.5h-5.48c-2.44-.06-2.98-.65-3.1-3.21v-54.46c.12-1.85.42-2.2,2.2-2.32,2.32-.06,4.64-.06,6.96,0,1.49,0,1.96.6,2.02,2.2.06,1.73,0,3.45,0,5.24v22.38l.06.12Z"/>
  <path d="m462.06,344.08h9.46c1.01,0,1.43.65,1.49,1.61,0,1.19.12,2.32.12,3.45v50.71c0,3.93-.18,4.11-4.05,4.05h-5.24c-1.19,0-1.85-.6-1.85-1.85v-54.4c0-1.07.12-2.14.18-3.57h-.12Z"/>
  <path d="m794.31,344.08h8.93c1.13,0,1.67.71,1.79,1.73.12.71.12,1.49.12,2.2v52.5c-.12,2.98-.6,3.45-3.51,3.45h-7.2c-.12-1.07-.36-1.96-.36-2.8v-54.7c0-.65.12-1.31.24-2.38Z"/>
  <path d="m551.58,53.92v-13.21c0-3.33,2.62-5.83,5.42-6.9,2.74-1.01,5.18-.89,7.68.24,2.56,1.13,4.46,2.92,4.58,5.89.18,3.99.3,7.92.36,11.9.06,4.29,0,8.63,0,12.92v2.26c-.24,2.32-.6,2.68-2.92,2.68h-11.73c-3.45,0-3.57-.12-3.57-3.69v-12.2h.12l.06.12Z"/>
  <path d="m540.03,33.38c.06.89.24,1.79.24,2.62,0,10.18.06,20.42,0,30.59,0,2.02-.3,2.38-2.26,2.38h-20.18c-1.25,0-1.85-.54-1.96-1.73-.06-.65-.3-1.37-.83-1.96-.48,1.25-.89,2.56-1.43,3.81-.54,1.43-1.73,2.38-3.15,2.62-1.85.3-3.81.54-5.65.24-4.35-.77-6.73-5.24-5.42-9.46.3-.95.48-1.9.89-2.86,1.85-4.17,4.64-4.58,8.51-4.58,2.92,0,5.42,1.37,8.04,2.38,4.52,1.67,8.81,1.19,12.92-1.19.83-.48,1.67-1.25,2.14-2.02,1.37-2.38,2.74-4.7,3.39-7.44.6-2.62,1.67-5.18,2.44-7.8.6-1.9,1.13-3.75,1.67-5.65h.65v.06Z"/>
  <path d="m302.9,344.08h8.99c1.19,0,1.55.71,1.55,1.79v55.71c-.12,1.73-.6,2.26-2.26,2.32-2.14.06-4.35.06-6.49,0-1.55,0-1.85-.42-1.96-1.96-.06-.65,0-1.31,0-1.96v-52.74c0-.89.06-1.79.12-3.1l.06-.06Z"/>
  <path d="m818.11,344.44c.06,1.07.24,2.02.24,3.04v52.44c0,2.74-1.37,4.05-4.17,4.05h-4.46c-1.55-.06-2.02-.6-2.14-2.14-.06-.83,0-1.67,0-2.5v-51.72c0-3.45,0-3.51,3.39-3.51,2.08,0,4.17,0,6.25.06.24,0,.48.12,1.01.36l-.12-.06Z"/>
  <path d="m605.39,64.93c-.18.6-.42,1.19-.48,1.79-.18,2.2-.3,2.32-2.5,2.32h-18.69c-.89,0-1.79-.18-2.56-.24-.65-2.38-.77-31.25-.18-36.9.95,3.09,1.79,5.95,2.68,8.81,1.01,3.21,2.08,6.43,3.1,9.64,1.25,4.11,4.17,6.49,8.15,7.56,3.04.83,6.07.65,9.05-.36,2.5-.89,4.76-2.38,7.5-2.38,1.73,0,3.51.06,5.12.54,1.61.48,2.8,1.61,3.57,3.21,1.37,2.92,2.26,5.77.89,9.05-.95,2.26-2.56,3.39-4.76,3.93-1.25.3-2.62.24-3.99.24-2.98,0-5.89-2.32-6.19-6.19,0-.3-.12-.6-.18-.95-.18,0-.42-.06-.6-.12l.06.06Z"/>
  <path d="m464.92,205.46c.12-1.19.18-2.14.36-3.04.6-3.15,1.25-6.31,1.9-9.4.06-.3,0-.65,0-1.25-2.38-.54-4.76-.3-7.14-.24-2.26,0-4.64-.36-7.08.48.77,3.04,1.55,5.89,2.32,8.75.24.95.54,1.9.6,2.92.12,1.31-.42,1.9-1.73,1.9-3.75.06-7.5.12-11.19,0-1.85-.06-2.68-1.07-2.68-2.92v-13.69c0-2.14.48-2.56,2.74-2.56h35.36c1.55.12,1.96.42,1.96,1.96v14.7c0,1.55-.71,2.5-2.2,2.56-4.29.12-8.57.24-13.21,0v-.18Z"/>
  <path d="m568.01,192.12c-2.68-.95-12.68-.95-15.24,0,.48,1.67,1.01,3.39,1.49,5.12.48,1.73,1.13,3.45,1.49,5.24.48,2.5,0,3.04-2.5,3.1-3.33.06-6.67.12-9.94,0-2.14,0-2.86-.77-2.92-2.86v-13.93c0-2.02.42-2.44,2.56-2.44h35.18c2.14,0,2.44.36,2.5,2.44v13.69c0,2.26-.71,3.04-2.98,3.1-3.39.06-6.84.06-10.24,0-2.26-.06-2.8-.83-2.26-3.04.77-2.98,1.67-5.89,2.5-8.87.12-.48.24-.95.42-1.55h-.06Z"/>
  <path d="m667.41,191.65c-4.58-.24-9.05-.24-13.69,0,0,.77-.12,1.25,0,1.73.65,2.98,1.37,5.89,2.08,8.87.12.48.24.95.24,1.49,0,1.31-.36,1.9-1.73,1.9-3.75,0-7.5.06-11.19,0-1.96-.06-2.56-.77-2.56-2.86v-14.17c0-1.85.3-2.08,2.26-2.14h35.65c1.49.12,1.9.54,2.02,2.02.06,1.25,0,2.5,0,3.75v10.18c0,2.32-.77,3.21-3.1,3.27-3.45.12-6.96.06-10.48,0-1.67,0-2.26-.71-1.9-2.44.42-2.08,1.07-4.17,1.55-6.25.42-1.67,1.25-3.21.83-5.3v-.06Z"/>
  <path d="m583.78,18.38c-1.13.18-1.9.36-2.68.36h-42.08c-.77,0-1.61-.18-2.8-.3.65-.71.95-1.19,1.37-1.49,6.61-5.18,13.21-10.36,19.88-15.59.3-.24.65-.54,1.01-.71,1.37-.95,2.44-.83,3.81.24,1.9,1.55,3.93,3.04,5.89,4.52.18.12.36.36.54.54,4.58,3.63,9.17,7.26,13.75,10.95.42.36.77.77,1.43,1.55l-.12-.06Z"/>
  <path d="m561.22,256.53h42.08c.83,0,1.67,0,2.08,1.01.36.89.06,2.38-.77,2.92-.71.48-1.67.77-2.5.83-2.08.12-4.17.06-6.25.06h-76.01c-2.14-.06-3.27-1.73-2.56-3.69.3-.83.95-1.07,1.79-1.07h42.08l.06-.06Z"/>
  <path d="m314.87,291.23c-.95-1.79-1.73-3.27-3.39-3.93-.36-.18-.6-.95-.71-1.49-.54-2.8-2.2-4.58-5-5.12-1.31-.24-2.62-.36-3.93-.42-1.96-.06-3.99.06-5.95-.12-2.44-.24-3.33-1.43-3.33-4.11.36-.12.71-.3,1.07-.3,4.05,0,8.15.12,12.2.06,2.44,0,4.4,1.13,6.37,2.38.83.54,1.61,1.07,2.32,1.55,2.08-1.07,3.99-2.08,5.95-2.92,1.01-.48,2.14-.83,3.27-.89,3.63-.18,7.32-.18,10.95-.18.77,0,1.61.18,2.32.3,0,2.38-.65,3.51-2.68,4.05-1.01.3-2.14.24-3.21.3-2.08.06-4.17,0-6.19.18-3.33.3-5.36,2.32-6.49,5.36-.18.54-.36,1.25-.77,1.49-1.43.83-2.26,2.02-2.8,3.93v-.12Z"/>
  <path d="m856.03,394.02v-9.7c0-.77.48-1.19,1.25-1.25.48,0,1.01-.06,1.49-.06h15.89c2.98,0,3.21.24,3.21,3.27,0,1.96,0,3.99-.06,5.95-.06,1.61-.54,2.14-2.08,2.14h-18.63c-.24,0-.48-.12-1.07-.36Z"/>
  <path d="m460.87,290.27c-1.43-1.19-2.68-2.2-4.35-3.57.18.36.06.24,0,.06-.3-4.35-2.92-5.89-6.9-6.31-2.38-.24-4.82-.12-7.2-.12-1.96,0-3.33-.83-4.17-2.56-.18-.42-.12-.95-.12-1.43,1.61-.95,3.33-.65,4.94-.65,2.5-.06,5,.18,7.44.12,2.8,0,5.12,1.07,7.38,2.5.48.3.95.65,1.43.95.95.6,1.73.65,2.68-.18,2.5-2.2,5.48-3.27,8.87-3.27h9.94c.77,0,1.55.18,2.38.3-.65,2.74-2.14,4.05-4.64,4.23-1.43.06-2.8,0-4.23,0-1.19,0-2.32,0-3.45.12-3.45.3-5.59,2.26-6.67,5.42-.3.83-.48,1.49-1.37,1.9-.42.18-.65.83-.95,1.31-.3.42-.65.83-.95,1.25l-.06-.06Z"/>
  <path d="m855.97,292v-9.46c0-1.01.6-1.49,1.55-1.55.36,0,.65-.06,1.01-.06h16.19c2.68,0,3.15.54,3.15,3.27v5.95c-.06,1.73-.48,2.14-2.08,2.2h-18.69c-.24,0-.48-.12-1.13-.36Z"/>
  <path d="m785.2,207.9c-.18-.3-.24-.42-.24-.48-.65-4.7-.12-5.48,4.58-5.42,10.3.12,20.59.12,30.89.12h.48c3.21.12,4.52,1.67,3.75,4.82-.12.42-.65.95-1.13,1.07-.71.18-1.49.12-2.2.12h-33.39c-.95,0-1.9-.18-2.74-.24Z"/>
  <path d="m866.74,341.22h-8.21c-2.38,0-2.56-.3-2.62-2.56v-6.19c0-1.9.54-2.44,2.32-2.5,5.54-.06,11.07-.06,16.67,0,2.2,0,2.92.89,2.98,3.1v5.18c0,2.38-.6,2.98-2.92,3.04-2.74.06-5.48,0-8.21,0v-.06Z"/>
  <path d="m660.62,280.04c1.01-.54,1.96-.89,2.74-1.49,2.14-1.73,4.58-2.62,7.26-2.68,3.63-.06,7.32-.06,10.95,0,.54,0,1.07.24,1.61.42-.42,3.04-1.37,3.99-4.05,4.11-1.9.06-3.81-.12-5.71,0-1.79.18-3.63.48-5.3,1.19-1.01.42-2.14,1.55-2.5,2.56-.71,2.08-1.85,3.81-3.57,5.18-.42.36-.77.83-1.13,1.19-1.19-1.31-2.32-2.5-3.81-4.05-.12-1.07-.48-2.62-1.79-3.93-1.61-1.61-3.63-1.96-5.71-2.08-1.96-.12-3.99,0-5.95,0-1.49,0-2.8-.3-3.87-1.31-.71-.71-1.37-1.43-1.07-2.92.6-.12,1.25-.36,1.96-.36,2.74,0,5.48.06,8.21,0,4.4-.18,8.33.95,11.79,4.29l-.06-.12Z"/>
  <path d="m314.57,208.14h-16.67c-.65,0-1.31,0-1.96-.06-.3,0-.65-.12-.89-.3-1.19-.89-.65-4.7.77-5.18,1.19-.36,2.44-.54,3.63-.54,9.82,0,19.58,0,29.4.06,1.01,0,2.02-.06,2.98,0,1.73.06,2.38.71,2.62,2.38v.77c.18,2.56-.12,2.92-2.68,2.92h-17.2v-.06Z"/>
  <path d="m806.03,290.45c-1.07-1.01-2.2-2.02-3.27-3.1-.36-.36-.65-.95-.77-1.49-.65-3.33-2.92-4.88-6.07-5.3-1.37-.18-2.8-.18-4.23-.24-1.49,0-2.98.06-4.46-.06-2.38-.24-3.27-1.25-3.69-4.11.6-.12,1.19-.36,1.79-.36,3.45,0,6.96.06,10.48,0,2.8,0,5.18.95,7.44,2.38.89.6,1.85,1.07,2.62,1.55,2.08-1.13,3.93-2.14,5.83-3.1.6-.3,1.19-.6,1.85-.65,4.58-.12,9.11-.18,13.69-.18.3,0,.6.18.89.3.18,2.44-.65,3.69-2.92,4.05-1.37.18-2.8,0-4.23.18-2.2.18-4.46.3-6.61.65-2.5.42-3.63,2.38-4.52,4.52-.3.65-.54,1.37-1.01,1.9-.83,1.07-1.79,2.02-2.68,3.04h-.12Z"/>
  <path d="m855.97,213.25v-9.52c0-.48.65-1.19,1.13-1.43.65-.3,1.43-.3,2.2-.3,4.88,0,9.76.06,14.7.12.48,0,1.01,0,1.49.12,1.79.3,2.26.83,2.32,2.62.06,2.08.06,4.17,0,6.19,0,1.79-.42,2.14-2.26,2.2-3.75.06-7.44,0-11.19,0h-8.45.06Z"/>
  <path d="m264.75,394.49h-17.98c-2.26,0-2.56-.36-2.62-2.62v-6.49c0-1.73.54-2.32,2.2-2.32,5.48-.06,10.95,0,16.49,0,.89,0,1.79.18,1.9,1.19.3,3.27.18,6.55,0,10.24Z"/>
  <path d="m866.86,254.62h7.98c2.32,0,2.92.65,3.04,2.98.06,1.85.06,3.63,0,5.48,0,1.61-.65,2.26-2.2,2.44-.83.12-1.67.06-2.5.06h-13.69c-.65,0-1.31,0-2.02-.06-.95-.12-1.49-.65-1.49-1.67,0-2.38-.06-4.82,0-7.2.06-1.73.36-1.96,2.14-2.02h8.75Z"/>
  <path d="m374.98,394.49h-7.74c-1.79,0-2.26-.42-2.26-2.14-.06-2.32-.06-4.64,0-6.96,0-1.73.54-2.26,2.26-2.26,5.36,0,10.77-.06,16.13,0,1.79,0,2.2.48,2.26,2.2.06,2.2.06,4.46,0,6.73,0,2.08-.48,2.44-2.5,2.5h-8.21l.06-.06Z"/>
  <path d="m254.51,292.42h-7.74c-2.2,0-2.56-.42-2.62-2.68v-6.19c.06-1.85.71-2.56,2.62-2.56h15.71c1.96,0,2.32.42,2.38,2.38.06,2.32.06,4.64,0,6.96-.06,1.73-.36,2.02-2.08,2.08h-8.27Z"/>
  <path d="m866.68,356.34c2.74,0,5.48-.06,8.21,0,2.5.06,2.98.65,3.04,3.21v5.48c0,1.25-.6,1.85-1.67,2.08-.48.12-1.01.18-1.49.18h-15.89c-.6,0-1.19-.06-1.73-.18-.71-.12-1.19-.6-1.19-1.37v-7.68c0-1.31.89-1.61,2.02-1.61h8.69v-.12Z"/>
  <path d="m365.58,292.18c-.24-1.01-.54-1.96-.6-2.92-.12-1.9-.12-3.81,0-5.71.06-1.96.65-2.56,2.56-2.56h15.71c1.55,0,2.26.48,2.32,1.67.18,3.1.3,6.25,0,9.29-2.02.6-16.19.77-19.94.24h-.06Z"/>
  <path d="m375.22,341.16c-2.56,0-5.18.06-7.74,0-2.02-.06-2.5-.6-2.56-2.56,0-1.9-.06-3.81,0-5.71.06-2.2.83-2.92,3.1-2.92h14.46c2.44,0,3.1.71,3.15,3.15,0,1.9.06,3.81,0,5.71-.06,1.79-.65,2.38-2.44,2.44-2.68.06-5.3,0-7.98,0v-.12Z"/>
  <path d="m745.32,394.49h-7.98c-1.9,0-2.14-.24-2.26-2.14-.12-2.38-.12-4.82,0-7.2.06-1.73.42-2.02,2.14-2.08,3.1-.06,6.13,0,9.23,0h6.73c1.85.06,2.32.6,2.38,2.44.06,2.2,0,4.46-.06,6.73-.12,1.9-.54,2.26-2.5,2.26h-7.74.06Z"/>
  <path d="m745.08,292.42h-7.5c-2.14,0-2.38-.24-2.44-2.44-.06-2.14-.12-4.29,0-6.43.12-2.08.54-2.5,2.56-2.5,5,0,9.94-.06,14.94,0,2.44,0,2.92.6,2.98,2.98,0,1.9.06,3.81,0,5.71-.06,2.38-.48,2.74-2.8,2.8h-7.74v-.12Z"/>
  <path d="m254.45,341.28h-7.44c-2.2,0-2.8-.71-2.86-2.86v-5.71c.06-1.9.83-2.74,2.74-2.74h15.42c1.85,0,2.44.77,2.5,2.68.06,1.96.06,3.99,0,5.95,0,2.14-.48,2.56-2.74,2.62-2.56.06-5.12,0-7.74,0l.12.06Z"/>
  <path d="m855.97,228.61c2.8-.12,5.18-.24,7.56-.24,3.81,0,7.62,0,11.43.06,2.56.06,2.86.42,2.92,2.92v5.24c-.06,2.14-.54,2.68-2.68,2.68h-17.38c-1.07,0-1.79-.48-1.79-1.61v-9.05h-.06Z"/>
  <path d="m745.08,341.28h-7.2c-2.38,0-2.86-.6-2.86-2.98,0-1.79,0-3.63.12-5.48.06-2.26.65-2.86,3.04-2.92h14.17c2.44.12,3.27.95,3.27,3.33v5.18c-.06,1.96-.6,2.56-2.5,2.62-2.68.12-5.3,0-7.98,0v.12l-.06.12Z"/>
  <path d="m375.16,213.25h-7.74c-2.08,0-2.5-.48-2.5-2.5v-5.71c0-1.96.65-2.62,2.62-2.92.83-.12,1.67-.12,2.5-.12,4.23,0,8.45,0,12.68.06,2.14,0,2.86.65,2.92,2.8,0,2.08.06,4.17,0,6.19-.06,1.79-.42,2.14-2.26,2.2h-8.21Z"/>
  <path d="m264.57,213.08c-.89.06-1.61.18-2.32.18h-15.18c-2.56,0-2.86-.3-2.86-2.86v-5.24c0-2.2.54-2.8,2.8-2.92,1.85-.12,3.63-.18,5.48-.18,2.98,0,5.95.06,8.99.12.65,0,1.37,0,1.96.24.54.24,1.31.77,1.37,1.25.3,3.1.42,6.25-.12,9.46l-.12-.06Z"/>
  <path d="m254.63,265.63h-7.2c-2.5,0-3.21-.77-3.21-3.27,0-1.67-.06-3.33,0-4.94.12-1.96.77-2.68,2.74-2.74h15.42c1.85,0,2.38.54,2.44,2.38.06,2.08.06,4.17,0,6.19,0,1.67-.48,2.2-2.26,2.26-2.68.12-5.3,0-7.98,0l.06.12Z"/>
  <path d="m375.22,265.63h-7.44c-2.2,0-2.8-.65-2.86-2.86,0-1.73-.06-3.45,0-5.18.12-2.26.83-2.92,3.1-2.92h14.4c2.5,0,3.1.6,3.21,3.04.06,1.73.06,3.45,0,5.18-.06,2.02-.65,2.68-2.74,2.68-2.56.06-5.12,0-7.68,0v.06Z"/>
  <path d="m745.08,213.25h-7.68c-1.9,0-2.14-.3-2.2-2.2-.12-1.96-.18-3.99-.18-5.95s.6-2.68,2.56-2.92c1.01-.12,1.96-.18,2.98-.18,3.87,0,7.8,0,11.67.12,2.74.06,3.33.71,3.39,3.45v5.18c-.06,2.02-.48,2.44-2.56,2.44h-7.98v.06Z"/>
  <path d="m375.22,356.34h7.2c2.56,0,3.1.54,3.21,3.04.06,1.9,0,3.81,0,5.71,0,1.25-.65,1.79-1.73,2.02-.42.06-.83.12-1.25.12-4.52,0-9.11.06-13.69.12-.83,0-1.67-.06-2.5-.18-.89-.18-1.55-.65-1.55-1.67,0-2.32-.12-4.64,0-6.96.06-1.49.89-2.08,2.5-2.14h7.68v-.06h.12Z"/>
  <path d="m254.51,367.29h-7.2c-2.62,0-3.15-.65-3.21-3.21v-4.94c.06-1.9.65-2.62,2.5-2.68,5.12-.12,10.3-.12,15.42-.12,2.38,0,2.74.48,2.8,2.8v5.71c0,1.79-.36,2.08-2.14,2.38-.6.12-1.13.12-1.73.12h-6.43v-.06Z"/>
  <path d="m745.5,254.62h6.73c2.74,0,3.27.6,3.33,3.39v4.94c0,1.61-.6,2.2-2.2,2.5-.48.12-1.01.12-1.49.12h-13.69c-2.56,0-3.1-.6-3.1-3.04,0-1.73-.06-3.45,0-5.24.06-2.02.71-2.68,2.74-2.74,2.56-.06,5.12,0,7.74,0l-.06.06Z"/>
  <path d="m745.38,356.4h7.2c2.38.06,2.92.65,2.98,2.98v5c0,2.02-.6,2.68-2.68,2.8-3.39.12-6.79.18-10.24.18-1.67,0-3.33,0-5-.18-2.26-.12-2.74-.6-2.74-2.92v-5.24c0-2.2.48-2.74,2.86-2.74h7.5v.12h.12Z"/>
  <path d="m375.34,239.32h-7.74c-2.14,0-2.62-.54-2.68-2.68,0-1.9-.06-3.81,0-5.71.06-1.85.54-2.38,2.38-2.38,5.3-.06,10.59-.06,15.89,0,1.9,0,2.32.48,2.44,2.38.06,2.08,0,4.17,0,6.19-.06,1.73-.54,2.2-2.32,2.2-2.68.06-5.3,0-7.98,0Z"/>
  <path d="m254.81,228.49h7.98c1.73,0,2.02.36,2.08,2.08.06,2.14.12,4.29,0,6.49-.06,1.79-.48,2.2-2.26,2.26-5.3.06-10.65.06-15.95,0-1.79,0-2.38-.65-2.44-2.44-.06-1.96,0-3.99,0-5.95s.48-2.38,2.38-2.38c2.74-.06,5.48,0,8.21,0v-.06Z"/>
  <path d="m745.38,228.49c2.68,0,5.3-.06,7.92,0,1.67,0,2.2.6,2.26,2.32.06,1.96.12,3.99,0,5.95-.06,1.85-.71,2.5-2.68,2.5-5.12.06-10.3.06-15.42,0-2.02,0-2.44-.48-2.5-2.56-.06-2.2.06-4.46.12-6.67,0-1.19.77-1.55,1.79-1.61,1.96-.06,3.99-.12,5.95-.12h2.5v.18h.06Z"/>
  <path d="m574.14,221.94v5.24c0,1.9-.54,2.44-2.32,2.5-2.32.06-4.64,0-6.96,0-1.25,0-1.85-.65-1.85-1.85,0-3.87-.06-7.8,0-11.67,0-1.55.54-2.02,2.2-2.08,2.26-.06,4.46-.06,6.73,0,1.55.06,2.08.6,2.14,2.14.12,1.9,0,3.81,0,5.71h.06Z"/>
  <path d="m674.31,222.06v5.24c-.06,1.79-.65,2.38-2.44,2.38h-6.25c-1.85,0-2.44-.6-2.5-2.32-.06-3.57-.06-7.14,0-10.71,0-2.02.71-2.62,2.8-2.62h5.71c1.96.06,2.56.65,2.62,2.56.06,1.85,0,3.63,0,5.48h.06Z"/>
  <path d="m574.14,242.84v5.24c0,1.73-.54,2.38-2.14,2.44-2.26.12-4.46.18-6.73.06-1.67-.06-2.2-.65-2.26-2.38-.12-3.57-.12-7.14,0-10.71,0-1.61.48-2.2,2.02-2.32,2.5-.12,4.94,0,7.44.12,1.13.06,1.79.77,1.73,2.02v5.48l-.06.06Z"/>
  <path d="m674.31,242.66v5.18c-.06,2.08-.65,2.68-2.68,2.74-1.9.06-3.81.06-5.71,0-1.9,0-2.74-.83-2.8-2.74-.06-3.45,0-6.96,0-10.42,0-1.37.6-2.14,1.85-2.2,2.5-.12,4.94-.12,7.44,0,1.25.06,1.79.83,1.85,2.2.06,1.73,0,3.45,0,5.18l.06.06Z"/>
  <path d="m658.6,222.3c0,1.55.06,3.15,0,4.7-.12,2.14-.6,2.62-2.74,2.62h-6.19c-1.79-.06-2.08-.36-2.14-2.02,0-3.81-.06-7.62,0-11.43,0-1.79.42-2.08,2.32-2.14,1.96-.06,3.99-.06,5.95,0,2.02,0,2.5.42,2.86,2.38.12.83.12,1.67.12,2.44s-.06,1.49-.12,2.2v1.25h-.06Z"/>
  <path d="m647.47,242.78v-5.18c0-1.67.42-2.2,1.96-2.32,2.32-.12,4.64-.06,6.96,0,1.19,0,2.02.71,2.14,2.02.12,1.49.12,2.98.12,4.46,0,2.08.12,4.17-.06,6.19-.18,2.32-.71,2.68-2.98,2.74-1.67,0-3.33.06-4.94,0-2.8-.06-3.15-.48-3.21-3.15v-4.76Z"/>
  <path d="m793,229.68c-.42-5.36-.6-10.3.12-15.59,2.98,0,5.65-.12,8.39,0,1.61.06,2.08.71,2.14,2.44.06,2.08,0,4.17,0,6.19v4.94c-.12,1.43-.65,1.96-2.02,1.96-2.74.06-5.42,0-8.57,0l-.06.06Z"/>
  <path d="m327.84,214.03c.24,1.31.54,2.38.54,3.45.06,3.1,0,6.13,0,9.23,0,.6-.12,1.13-.24,1.73-.18.77-.65,1.31-1.61,1.25h-7.5c-1.25,0-1.85-.71-1.85-1.9v-11.67c0-1.49.54-1.96,1.96-2.02,2.74-.06,5.48,0,8.57,0l.12-.06Z"/>
  <path d="m819.13,222.12v4.94c-.06,2.08-.54,2.56-2.5,2.56h-6.19c-1.61,0-2.08-.36-2.14-1.79-.12-3.99-.06-7.92,0-11.9,0-1.55.48-1.85,2.08-1.9,2.08-.06,4.11-.06,6.19,0,1.85,0,2.38.54,2.44,2.38.12,1.9,0,3.81,0,5.71h.12Z"/>
  <path d="m301.83,221.77v-4.7c.06-2.44.54-2.92,2.92-3.04h5.71c1.73,0,2.14.48,2.44,2.14,0,.3.06.65.06,1.01,0,3.21,0,6.43-.06,9.7-.06,2.5-.48,2.8-2.98,2.86h-4.94c-2.74,0-3.1-.36-3.1-3.21v-4.7l-.06-.06Z"/>
  <path d="m301.83,242.72v-5c.06-1.79.6-2.44,2.38-2.5,2.14-.12,4.35-.12,6.49,0,1.37,0,1.96.6,2.08,1.96.12,1.25.12,2.5.12,3.75,0,1.9.12,3.81.12,5.71,0,.83-.18,1.67-.36,2.44-.24,1.13-.89,1.67-2.08,1.67h-6.25c-1.73-.06-2.38-.71-2.44-2.44-.06-1.85,0-3.63,0-5.48l-.06-.12Z"/>
  <path d="m458.31,222.06c0,1.73.06,3.51,0,5.24-.12,1.85-.6,2.32-2.44,2.38-2.08.06-4.17.06-6.19,0-1.79,0-2.14-.36-2.2-1.96-.06-3.81-.12-7.62,0-11.43,0-1.73.54-2.14,2.32-2.2,2.08-.06,4.17-.06,6.19,0,1.61,0,2.14.48,2.26,2.08.18,1.96,0,3.99,0,5.95h.12l-.06-.06Z"/>
  <path d="m557.89,214.09c.65,5.24.48,10.24.12,15.42-3.21.24-6.19.18-9.11,0-.48,0-1.01-.71-1.31-1.19-.18-.3-.12-.77-.12-1.19v-10.42c0-2.32.42-2.68,2.8-2.68s4.94,0,7.68.06h-.06Z"/>
  <path d="m317.19,242.84v-5.24c0-1.67.54-2.32,2.2-2.38,2.32-.12,4.64,0,6.96,0,1.19,0,1.79.77,1.85,1.9.12,1.49.18,2.98.18,4.46,0,2.2,0,4.46-.18,6.67-.18,2.14-.54,2.38-2.68,2.38h-5.71c-1.96-.06-2.5-.65-2.62-2.56-.06-1.73,0-3.45,0-5.24Z"/>
  <path d="m793.23,250.57c-.18-1.13-.48-2.02-.48-2.86-.06-3.21-.06-6.43,0-9.7,0-2.44.36-2.74,2.74-2.86,1.9-.06,3.81-.12,5.71,0,1.96.12,2.44.71,2.5,2.62,0,3.21.06,6.43,0,9.7,0,2.44-.71,3.1-3.1,3.15-2.38,0-4.76,0-7.32-.12l-.06.06Z"/>
  <path d="m547.35,242.54v-4.7c.06-2.14.48-2.62,2.68-2.68,1.73-.06,3.45,0,5.24,0,2.62,0,2.92.36,2.98,3.1v8.93c0,.6-.06,1.13-.12,1.73-.12,1.13-.71,1.79-1.96,1.79-2.08,0-4.17.06-6.19,0-1.9-.06-2.44-.65-2.5-2.62-.06-1.79,0-3.63,0-5.48l-.12-.06Z"/>
  <path d="m819.07,242.66c0,1.85.06,3.63,0,5.48-.12,1.9-.71,2.5-2.62,2.56h-5.95c-1.49-.06-1.85-.42-2.14-1.9-.06-.42-.12-.83-.12-1.25,0-3.15-.06-6.31,0-9.46,0-2.26.54-2.74,2.8-2.86,1.85-.06,3.63-.12,5.48,0,2.14.12,2.62.65,2.68,2.74v4.7h-.12Z"/>
  <path d="m869.48,354.08h-5.24c-1.73,0-2.14-.36-2.26-1.96-.12-2.32-.06-4.64,0-6.96,0-1.13.71-1.61,1.79-1.61,3.75,0,7.44-.12,11.19,0,2.26,0,2.92.77,2.98,3.04v3.99c0,2.86-.71,3.57-3.45,3.63h-4.94l-.06-.12Z"/>
  <path d="m869.48,327.71h-5.71c-1.49,0-1.79-.3-1.85-1.73-.06-2.32,0-4.64,0-6.96,0-1.19.6-1.79,1.85-1.79h11.67c1.73,0,2.32.54,2.38,2.2.12,2.08.12,4.11,0,6.19-.06,1.55-.48,2.02-2.14,2.08-2.08.06-4.11,0-6.19,0Z"/>
  <path d="m869.54,268.37h5.48c2.38.06,2.86.6,2.92,3.04,0,1.67.06,3.33,0,4.94,0,1.67-.54,2.14-2.2,2.38-.65.06-1.31,0-1.96,0h-9.46c-1.85,0-2.2-.36-2.26-2.14-.06-1.9-.06-3.81,0-5.71.06-2.32.36-2.56,2.62-2.56h5l-.12.06Z"/>
  <path d="m877.81,242.48c0,2.62.06,5.18,0,7.68-.06,1.37-1.07,2.2-2.5,2.26-3.81.06-7.62,0-11.43,0-1.25,0-1.85-.77-1.9-1.85-.06-2.68,0-5.42,0-8.04,2.08-.71,12.92-.77,15.83-.06Z"/>
  <path d="m869.48,406.88h-5.48c-1.49,0-2.02-.42-2.08-1.9-.12-2.2,0-4.46,0-6.67,0-1.19.77-1.79,1.96-1.79,3.81,0,7.62-.06,11.43,0,1.67,0,2.5.83,2.56,2.38.06,1.79.06,3.63,0,5.48-.06,1.67-.77,2.38-2.44,2.5-1.96.06-3.99,0-5.95,0Z"/>
  <path d="m869.78,380.15h-5.71c-1.61,0-1.96-.3-2.02-1.85-.12-2.2-.06-4.46,0-6.73,0-1.19.6-1.85,1.85-1.85h11.43c1.79,0,2.56.83,2.62,2.62.06,1.73.06,3.51,0,5.24-.06,1.9-.65,2.44-2.62,2.5-1.85.06-3.63,0-5.48,0l-.06.06Z"/>
  <path d="m861.92,225.16c0-2.44-.06-4.88,0-7.38.12-1.9.6-2.32,2.44-2.38h10.24c2.32,0,3.15.89,3.27,3.15.06,1.73,0,3.51,0,5.24,0,1.19-.48,1.96-1.73,1.96-4.46,0-8.99-.06-13.45-.12-.12,0-.3-.18-.83-.48h.06Z"/>
  <path d="m473.73,242.84v5.18c0,2.08-.48,2.5-2.44,2.56-2.08,0-4.17.06-6.19,0-1.67-.06-2.14-.48-2.14-2.08-.06-3.81,0-7.62,0-11.43,0-1.13.65-1.79,1.61-1.85,2.56-.12,5.12-.12,7.68,0,1.07,0,1.55.83,1.55,1.9v5.71h-.06Z"/>
  <path d="m663.06,263.55v-3.99c0-2.44.65-3.1,3.04-3.15h5.48c1.96,0,2.62.6,2.68,2.44.06,3.21.12,6.49,0,9.7,0,1.73-.77,2.38-2.5,2.44-1.96.06-3.99.06-5.95,0-1.96,0-2.62-.71-2.68-2.74-.06-1.55,0-3.15,0-4.7h-.06Z"/>
  <path d="m458.19,242.9c0,1.73.06,3.45,0,5.18-.12,1.79-.71,2.38-2.44,2.5-1.96.12-3.99.12-5.95,0-1.79-.06-2.38-.65-2.38-2.5-.06-3.63,0-7.26,0-10.89,0-1.25.71-1.9,1.79-1.96,2.32-.12,4.64-.18,6.96,0,1.61.12,2.08.77,2.2,2.44.06,1.73,0,3.45,0,5.18h-.12l-.06.06Z"/>
  <path d="m462.83,221.83v-5.18c.06-2.14.42-2.5,2.44-2.56,2.08-.06,4.11,0,6.19,0,1.55,0,1.85.36,2.02,1.9.12,1.01,0,1.96,0,2.98,0,2.74.12,5.48.12,8.15,0,2.32-.3,2.56-2.62,2.56h-5.95c-1.9,0-2.2-.36-2.26-2.14-.06-1.9,0-3.81,0-5.71h.06Z"/>
  <path d="m647.47,263.73v-5c0-1.85.36-2.26,2.14-2.32,2.26-.06,4.46,0,6.73,0,1.19,0,1.85.6,2.08,1.67.12.6.3,1.13.3,1.73,0,2.92,0,5.77-.18,8.69-.12,2.02-.77,2.5-2.92,2.56h-5.48c-2.32,0-2.62-.36-2.68-2.56v-4.76Z"/>
  <path d="m317.19,263.55v-4.7c.06-1.79.48-2.26,2.2-2.32,2.26-.06,4.46,0,6.73-.06,1.19,0,1.85.6,2.08,1.67.06.24.12.48.12.71,0,3.45,0,6.96-.24,10.42-.06,1.49-.54,1.79-2.14,1.79-2.14,0-4.29.06-6.49,0-1.73-.06-2.2-.6-2.32-2.26-.06-1.73,0-3.45,0-5.24h.06Z"/>
  <path d="m793.17,270.87c-.77-4.76-.6-9.4-.06-14.28,3.1-.3,6.01-.18,8.87-.06,1.07,0,1.67.71,1.67,1.79v10.65c0,1.13-.6,1.96-1.79,2.02-2.8.12-5.59.3-8.63-.12h-.06Z"/>
  <path d="m819.07,263.79c0,1.67.06,3.33,0,4.94-.12,1.67-.6,2.2-2.32,2.32-2.08.06-4.17.06-6.19,0-1.79-.06-2.14-.42-2.32-2.26-.12-1.01,0-1.96-.06-2.98,0-2.14-.06-4.29,0-6.43.06-2.44.54-2.86,2.98-2.92h5.48c1.85.06,2.38.54,2.5,2.38.06,1.67,0,3.33,0,4.94h-.06Z"/>
  <path d="m301.83,263.73c0-1.67-.06-3.33,0-4.94.06-1.61.71-2.2,2.32-2.32,2.08-.06,4.17-.06,6.25,0,1.96,0,2.5.54,2.56,2.56.06,2.5,0,4.94-.06,7.44,0,.89,0,1.85-.06,2.74-.24,1.43-.65,1.85-2.14,1.85-2.08,0-4.17.06-6.25,0-1.85-.06-2.5-.71-2.56-2.62-.06-1.55,0-3.15,0-4.7h-.06Z"/>
  <path d="m462.83,263.73v-5c.06-1.79.42-2.2,2.26-2.26,2.26-.06,4.46,0,6.73,0,1.13,0,1.79.6,1.79,1.61.06,3.63.18,7.32,0,10.95,0,1.67-.54,2.02-2.2,2.02h-6.49c-1.67,0-2.02-.42-2.14-2.08-.06-1.73,0-3.51,0-5.24h.06Z"/>
  <path d="m251.53,354.08c-1.55,0-3.15.06-4.7,0-1.85-.12-2.56-.77-2.62-2.62-.06-1.79,0-3.63,0-5.48,0-1.61.42-2.02,1.96-2.38.54-.12,1.13-.18,1.73-.18,2.8,0,5.65,0,8.45.12,2.08.06,2.44.48,2.5,2.5v4.94c-.06,2.62-.42,2.98-3.04,3.04h-4.23l-.06.06Z"/>
  <path d="m532.83,272.06v5.95c0,2.26-.48,2.74-2.8,2.92-1.31.12-2.68.12-3.99-.06-1.61-.24-2.08-.89-2.14-2.5v-12.2c0-1.96.71-2.62,2.74-2.74,1.31-.06,2.68,0,3.99,0,1.55.12,2.08.54,2.14,2.14.12,2.14,0,4.29,0,6.49h.06Z"/>
  <path d="m258.44,317.24c.54,3.63.54,6.79.06,10.06-.6.12-1.07.36-1.55.36-3.39,0-6.79.06-10.18,0-2.14,0-2.62-.6-2.68-2.68,0-1.79,0-3.63.06-5.48.06-1.43.65-2.2,1.85-2.2,4.05-.06,8.09,0,12.38,0l.06-.06Z"/>
  <path d="m458.25,263.55c0,1.55.06,3.15,0,4.7-.12,2.26-.65,2.74-2.92,2.8h-5.71c-1.67-.06-2.14-.48-2.14-2.08-.12-3.45-.12-6.96,0-10.42,0-1.61.48-2.02,2.14-2.08,2.08-.06,4.17-.06,6.25,0,1.85.06,2.5.71,2.56,2.62,0,.77-.06,1.49-.06,2.2v2.26h-.12Z"/>
  <path d="m251.83,406.88h-4.94c-1.9-.06-2.62-.83-2.74-2.8-.06-1.55-.06-3.15,0-4.7.06-2.2.71-2.86,2.8-2.92h9.46c1.85,0,2.2.36,2.32,2.14.12,2.08.12,4.11,0,6.19-.06,1.67-.42,1.96-2.14,2.02-1.55.06-3.15,0-4.7,0l-.06.06Z"/>
  <path d="m258.44,242.06c.65,3.15.24,6.13,0,9.05,0,.42-.77.95-1.31,1.25-.42.18-.95.12-1.49.12h-8.69c-1.85,0-2.74-.77-2.8-2.44-.12-2.14-.06-4.29-.06-6.43,0-.89.48-1.49,1.37-1.49h12.98v-.06Z"/>
  <path d="m258.44,225.63c-1.01.06-1.9.18-2.8.18-2.98,0-5.95.06-8.93,0-2.26,0-2.5-.36-2.56-2.68,0-1.55-.06-3.15,0-4.7.06-1.85.89-2.92,2.68-2.98,3.21-.12,6.43-.06,9.7,0,1.07,0,1.96.42,2.08,1.67.3,2.8.48,5.59-.12,8.51h-.06Z"/>
  <path d="m258.5,380.15h-12.14c-1.43,0-2.14-.77-2.2-2.2-.06-1.9-.06-3.81,0-5.71,0-1.49.77-2.32,2.32-2.38,1.73-.12,3.51-.06,5.24-.12h5.24c.77,0,1.61.3,1.67,1.19.24,2.92.3,5.89-.12,9.23Z"/>
  <path d="m251.24,278.61c-1.61,0-3.15.06-4.7,0-1.85-.12-2.32-.6-2.38-2.44v-5.24c0-1.79.6-2.32,2.38-2.5,1.07-.12,2.14-.06,3.21-.06h6.73c1.9.06,2.26.48,2.32,2.44,0,1.9.06,3.81,0,5.71-.06,1.67-.42,2.08-2.08,2.14-1.85.12-3.63,0-5.48,0v-.06Z"/>
  <path d="m378.37,327.65h-4.94c-1.79-.06-2.2-.48-2.26-2.26-.06-1.9-.06-3.81,0-5.71.12-1.96.6-2.5,2.56-2.56,3.15-.06,6.31-.06,9.4,0,1.85,0,2.44.6,2.5,2.38.12,1.96.06,3.99,0,5.95-.06,1.73-.54,2.14-2.32,2.2-1.67.06-3.33,0-4.94,0Z"/>
  <path d="m371.11,242.36c.95-.18,1.61-.36,2.2-.36h10c2.08,0,2.26.24,2.32,2.32,0,1.67.06,3.33,0,5-.06,2.38-.77,3.15-3.15,3.15h-8.45c-2.14,0-2.8-.71-2.92-2.86-.06-2.38,0-4.76,0-7.26Z"/>
  <path d="m378.55,343.49h4.46c1.9.06,2.56.71,2.62,2.56.06,1.79.06,3.63,0,5.48-.12,1.85-.71,2.5-2.62,2.56-3.1.06-6.13.06-9.23,0-1.9,0-2.5-.71-2.62-2.56-.12-1.79-.06-3.63,0-5.48.06-1.79.54-2.32,2.44-2.44,1.67-.12,3.33,0,4.94,0v-.12Z"/>
  <path d="m378.43,225.81h-5.24c-1.79-.06-2.02-.36-2.08-2.08,0-1.79-.06-3.63,0-5.48.12-2.08.83-2.8,2.98-2.86h8.45c2.2,0,2.98.83,3.1,2.98.06,1.73.06,3.45,0,5.18-.06,1.85-.36,2.08-2.26,2.14h-4.94v.12Z"/>
  <path d="m378.49,380.15c-1.67,0-3.33.06-5,0-1.85-.06-2.32-.6-2.38-2.44-.06-1.73-.06-3.51,0-5.24.06-1.9.65-2.62,2.5-2.68,3.15-.12,6.31-.12,9.46,0,1.79,0,2.5.83,2.5,2.68v5c-.06,2.2-.6,2.68-2.92,2.74h-4.23l.06-.06Z"/>
  <path d="m742.34,354.08c-1.61,0-3.15.06-4.76,0-1.79-.12-2.38-.71-2.44-2.5-.06-1.9-.06-3.81,0-5.71,0-1.55.42-2.02,2.02-2.32.71-.18,1.49-.18,2.26-.18h7.2c1.96,0,2.62.6,2.68,2.44.06,1.79.06,3.63-.06,5.48-.18,2.32-.6,2.68-2.92,2.74h-3.99v.06Z"/>
  <path d="m378.37,406.93h-4.46c-2.02-.06-2.68-.71-2.8-2.68-.06-1.67-.06-3.33,0-4.94.06-1.96.77-2.68,2.74-2.74h9.23c1.85,0,2.5.71,2.62,2.56.06,1.73.12,3.45,0,5.18-.06,1.9-.71,2.5-2.56,2.56-1.55.06-3.15,0-4.7,0l-.06.06Z"/>
  <path d="m378.31,278.67c-1.67,0-3.33.12-4.94,0-1.73-.12-2.14-.6-2.2-2.32-.06-1.79-.06-3.63,0-5.42,0-1.85.48-2.32,2.32-2.44,1.37-.12,2.8-.06,4.23-.06h5.18c2.26.12,2.68.54,2.74,2.86v4.94c0,1.79-.54,2.32-2.38,2.44-1.67.12-3.33,0-4.94,0Z"/>
  <path d="m748.65,242.06c.24.54.54.83.54,1.07,0,2.38.18,4.76,0,7.14-.12,1.73-.71,2.14-2.44,2.2-3.04.06-6.13,0-9.17,0-1.19,0-2.2-.42-2.32-1.73-.36-2.8-.48-5.59.12-8.51,4.52-.48,8.99-.12,13.33-.18h-.06Z"/>
  <path d="m742.22,327.65c-1.67,0-3.33.06-4.94,0-1.67-.06-2.02-.42-2.14-2.14-.12-1.96-.18-3.99,0-5.95.12-1.96.48-2.32,2.44-2.38,3.21-.06,6.43,0,9.7,0,1.19,0,1.96.54,2.02,1.67.12,2.38.12,4.76,0,7.2,0,1.01-.65,1.67-1.79,1.61h-5.3Z"/>
  <path d="m589.49,272.18v-6.43c.06-1.96.42-2.26,2.38-2.32,1.25-.06,2.5,0,3.69,0,1.9.12,2.44.65,2.5,2.62v7.68c0,1.49.06,2.98,0,4.46-.06,1.9-.77,2.62-2.74,2.8-1.25.12-2.5.12-3.75,0-1.61-.12-2.02-.54-2.08-2.14-.06-2.2,0-4.46,0-6.67Z"/>
  <path d="m742.11,380.15c-1.55,0-3.15.06-4.7,0-1.85-.12-2.32-.6-2.38-2.44v-5.42c0-1.79.6-2.38,2.38-2.5,1.73-.12,3.45-.06,5.24-.06h4.23c1.61,0,2.26.48,2.38,1.96.18,2.2.12,4.46.06,6.67,0,1.13-.71,1.79-1.96,1.79h-5.24Z"/>
  <path d="m742.11,278.73c-1.55,0-3.15.06-4.7,0-1.79-.12-2.14-.54-2.26-2.26-.06-1.9-.06-3.81,0-5.71.06-1.73.48-2.2,2.2-2.32,1.31-.12,2.68-.06,3.99-.06h5.71c1.73.06,2.26.6,2.32,2.26.06,1.9.06,3.81,0,5.71-.06,1.73-.54,2.2-2.26,2.32-1.67.12-3.33,0-4.94,0l-.06.06Z"/>
  <path d="m742.05,406.88h-4.46c-1.9-.06-2.38-.54-2.44-2.38-.06-1.9-.06-3.81,0-5.71.06-1.67.65-2.26,2.32-2.26,3.15-.06,6.31,0,9.46,0,1.55,0,2.14.36,2.2,1.79.18,2.32.12,4.64,0,6.96-.06,1.13-.89,1.67-2.08,1.67h-5v-.06Z"/>
  <path d="m735.14,225.69c0-2.98-.06-5.54,0-8.09,0-1.31.89-2.08,2.26-2.14,3.15-.06,6.31,0,9.46,0,1.25,0,2.14.65,2.2,1.9.12,2.32.12,4.64.12,6.9,0,.77-.48,1.43-1.37,1.49-4.11,0-8.27.18-12.68-.06Z"/>
  <path d="m683.95,331.76c1.73.83,2.14,1.37,1.79,2.44-.36,1.07-1.67,1.85-2.74,1.49-.48-.12-.95-.65-1.13-1.07-.12-.3.18-.89.48-1.25.48-.6,1.13-1.13,1.67-1.67h-.06v.06Z"/>
  <path d="m782.58,331.58c.48.6,1.07,1.19,1.49,1.85.24.42.6,1.19.42,1.43-.36.42-1.13.89-1.55.77-.71-.18-1.49-.77-1.85-1.37-.48-.65,0-1.37.71-1.85.36-.24.6-.54.89-.77l-.12-.06Z"/>
  <path d="m437.42,335.75c-1.19,0-2.2-.83-2.26-1.85,0-.83.42-1.19,1.19-1.25,1.25-.06,2.68.83,2.74,1.67,0,.83-.6,1.43-1.67,1.43Z"/>
  <path d="m239.99,494.67v-1.96h5.83v-64.16h-5.83v-1.96h24.34c13.15,0,22.38,9.23,22.38,22.86v22.38c0,13.63-9.23,22.86-22.38,22.86h-24.34Zm16.55-1.96h7.8c6.84,0,11.67-4.88,11.67-15.06v-34.05c0-10.18-4.88-15.06-11.67-15.06h-7.8v64.16Z"/>
  <path d="m325.16,495.62c-8.75,0-15.59-6.79-15.59-17.5v-29.17h-4.88v-1.96h14.58v35.95c0,6.79,3.39,10.18,7.8,10.18,7.32,0,9.76-10.18,9.76-10.18v-34.05h-4.88v-1.96h14.58v45.71h4.88v1.96h-12.68l-.95-8.27h-.48s-2.92,9.23-12.2,9.23l.06.06Z"/>
  <path d="m392.42,495.62c-9.23,0-12.2-9.23-12.2-9.23h-.48l-3.87,8.27h-4.88v-66.13h-4.88v-1.96h14.58v19.46l-.95,9.23h.48s2.92-9.23,12.2-9.23c8.75,0,15.59,6.79,15.59,17.5v14.58c0,10.71-6.84,17.5-15.59,17.5Zm-1.96-2.44c4.4,0,7.8-3.39,7.8-10.18v-24.28c0-6.79-3.39-10.18-7.8-10.18-7.32,0-9.76,10.18-9.76,10.18v24.28s2.44,10.18,9.76,10.18Z"/>
  <path d="m440.57,495.62c-8.75,0-14.58-5.83-14.58-14.11,0-7.8,6.31-14.11,19.46-14.11h6.84v-7.32c0-7.8-3.87-11.67-10.24-11.67s-9.76,3.39-10.71,5.83c0,0,.48-.48,1.96-.48,1.96,0,3.87,1.96,3.87,4.4s-1.96,4.34-4.4,4.34-4.4-1.96-4.4-4.88c0-5.36,6.31-11.67,15.59-11.67,9.76,0,18.03,8.27,18.03,19.46v27.2h4.88v1.96h-12.68l-.95-8.27h-.48s-2.92,9.23-12.2,9.23v.06Zm1.96-2.44c7.32,0,9.76-10.18,9.76-10.18v-13.63h-6.84c-6.31,0-9.76,3.39-9.76,9.23v5.36c0,6.31,2.92,9.23,6.84,9.23Z"/>
  <path d="m481.46,494.67v-1.96h4.88v-43.75h-4.88v-1.96h14.58v45.71h4.88v1.96h-19.46Zm9.76-58.33c-2.92,0-5.36-2.44-5.36-5.36s2.44-5.36,5.36-5.36,5.36,2.44,5.36,5.36-2.44,5.36-5.36,5.36Z"/>
  <polygon points="544.73 494.67 544.73 492.7 550.57 492.7 550.57 428.54 544.73 428.54 544.73 426.64 567.17 426.64 567.17 428.54 561.28 428.54 561.28 492.7 567.17 492.7 567.17 494.67 544.73 494.67"/>
  <path d="m601.28,495.62c-10.24,0-13.15-7.26-13.15-7.26v6.31h-2.44v-16.55h2.44v3.39c0,6.79,4.88,11.67,11.19,11.67,5.36,0,8.75-3.39,8.75-8.27,0-10.71-22.38-11.67-22.38-26.25,0-6.79,5.83-12.62,15.59-12.62s13.15,7.26,13.15,7.26v-6.31h2.44v16.55h-2.44v-3.39c0-6.79-4.88-11.67-11.19-11.67-4.88,0-7.8,2.92-7.8,7.26,0,10.71,22.38,11.67,22.38,26.25,0,7.26-6.31,13.63-16.55,13.63Z"/>
  <path d="m655.8,495.62c-10.24,0-16.55-6.31-16.55-16.55v-50.53h-4.88v-1.96h14.58v58.33c0,5.36,3.39,8.75,6.84,8.75v1.96Z"/>
  <path d="m684.49,495.62c-8.75,0-14.58-5.83-14.58-14.11,0-7.8,6.31-14.11,19.46-14.11h6.84v-7.32c0-7.8-3.87-11.67-10.24-11.67s-9.76,3.39-10.71,5.83c0,0,.48-.48,1.96-.48,1.96,0,3.87,1.96,3.87,4.4s-1.96,4.34-4.4,4.34-4.4-1.96-4.4-4.88c0-5.36,6.31-11.67,15.59-11.67,9.76,0,18.03,8.27,18.03,19.46v27.2h4.88v1.96h-12.68l-.95-8.27h-.48s-2.92,9.23-12.2,9.23v.06Zm1.96-2.44c7.32,0,9.76-10.18,9.76-10.18v-13.63h-6.84c-6.31,0-9.76,3.39-9.76,9.23v5.36c0,6.31,2.92,9.23,6.84,9.23Z"/>
  <path d="m725.38,494.67v-1.96h4.88v-43.75h-4.88v-1.96h12.68l.95,8.27h.48s2.92-9.23,12.2-9.23c8.75,0,15.59,6.79,15.59,17.5v29.17h4.88v1.96h-19.46v-1.96h4.88v-34.05c0-6.79-3.39-10.18-7.8-10.18-7.32,0-9.76,10.18-9.76,10.18v34.05h4.88v1.96h-19.52Z"/>
  <path d="m805.73,495.62c-8.75,0-15.59-6.79-15.59-17.5v-14.58c0-10.71,6.84-17.5,15.59-17.5,9.23,0,12.2,9.23,12.2,9.23h.48l-.95-9.23v-17.5h-4.88v-1.96h14.58v66.13h4.88v1.96h-12.68l-.95-8.27h-.48s-2.92,9.23-12.2,9.23Zm1.96-2.44c7.32,0,9.76-10.18,9.76-10.18v-24.28s-2.44-10.18-9.76-10.18c-4.4,0-7.8,3.39-7.8,10.18v24.28c0,6.79,3.39,10.18,7.8,10.18Z"/>
  <path d="m864.12,495.62c-10.24,0-13.15-7.26-13.15-7.26v6.31h-2.44v-16.55h2.44v3.39c0,6.79,4.88,11.67,11.19,11.67,5.36,0,8.75-3.39,8.75-8.27,0-10.71-22.38-11.67-22.38-26.25,0-6.79,5.83-12.62,15.59-12.62s13.15,7.26,13.15,7.26v-6.31h2.44v16.55h-2.44v-3.39c0-6.79-4.88-11.67-11.19-11.67-4.88,0-7.8,2.92-7.8,7.26,0,10.71,22.38,11.67,22.38,26.25,0,7.26-6.31,13.63-16.55,13.63Z"/>
  <path d="m495.21,166.65v-45.06c-.89,1.13-2.14,2.38-3.69,3.63-1.55,1.19-3.04,2.26-4.46,3.15l-1.25-2.62c.54-.3,1.37-.89,2.44-1.67,1.13-.83,2.26-1.79,3.51-2.92,1.25-1.13,2.44-2.38,3.51-3.63,1.07-1.25,1.9-2.5,2.44-3.81h3.81v52.85h-6.31v.06Zm-9.46,0v-2.74h9.05l.36-.42h6.31l.36.42h9.05v2.74h-25.12Z"/>
  <path d="m532.41,167.42c-2.32,0-4.46-.48-6.49-1.37-2.02-.95-3.63-2.26-4.88-3.87-1.19-1.67-1.79-3.57-1.79-5.65,0-1.49.36-2.68,1.13-3.57s1.73-1.37,2.8-1.37,1.96.42,2.68,1.25c.77.83,1.13,1.9,1.13,3.15,0,.71-.24,1.49-.65,2.26-.42.77-1.19,1.43-2.38,1.9.83,1.43,2.08,2.44,3.69,3.1s3.21.95,4.82.95c2.98,0,5.3-1.07,6.96-3.21,1.73-2.14,2.92-5.18,3.63-9.17s1.07-8.69,1.07-14.11c0-5.83-.48-10.3-1.49-13.39-.95-3.1-2.2-5.24-3.81-6.37-1.61-1.19-3.45-1.79-5.42-1.79-2.74,0-4.94,1.07-6.61,3.21-1.67,2.08-2.5,5.42-2.5,9.88s.83,7.8,2.56,9.94c1.79,2.14,3.93,3.21,6.43,3.21,2.26,0,4.46-.83,6.55-2.44,2.08-1.61,3.99-4.05,5.71-7.26v4.35c-1.19,2.32-2.86,4.29-5,6.01-2.08,1.67-4.7,2.5-7.8,2.5-1.73,0-3.51-.3-5.3-.95s-3.39-1.61-4.88-2.86c-1.43-1.31-2.62-2.92-3.57-4.88-.89-2.02-1.31-4.35-1.31-7.02,0-3.75.77-6.84,2.38-9.29,1.61-2.5,3.63-4.4,6.07-5.65,2.44-1.25,5-1.9,7.62-1.9,2.02,0,4.05.42,6.07,1.19,2.02.71,3.87,2.02,5.54,3.87,1.67,1.85,2.98,4.35,3.99,7.5,1.01,3.1,1.55,7.02,1.55,11.73,0,6.13-.71,11.49-2.14,16.01-1.43,4.46-3.51,7.92-6.31,10.42-2.68,2.5-5.95,3.69-9.82,3.69h-.24Z"/>
  <path d="m572.71,167.42c-1.79,0-3.57-.24-5.42-.71-1.79-.48-3.51-1.25-5.12-2.26-1.55-1.07-2.8-2.44-3.75-4.17-.95-1.73-1.37-3.87-1.37-6.37,0-2.74.54-5.12,1.61-7.08,1.07-1.96,2.44-3.69,4.11-5.06,1.73-1.37,3.45-2.44,5.24-3.15l3.39,1.19c-1.9.77-3.75,1.79-5.42,2.98-1.73,1.19-3.1,2.68-4.17,4.4-1.07,1.73-1.61,3.81-1.61,6.13,0,2.08.42,3.87,1.19,5.3.83,1.37,1.9,2.5,3.15,3.33,1.31.83,2.68,1.43,4.11,1.79,1.43.36,2.8.54,4.05.54,1.96,0,3.81-.36,5.54-1.13,1.73-.77,3.1-1.9,4.11-3.33,1.07-1.49,1.61-3.27,1.61-5.36,0-1.96-.48-3.57-1.37-4.88-.95-1.37-2.14-2.5-3.69-3.39-1.55-.95-3.21-1.79-5.12-2.62-1.79-.77-3.63-1.61-5.54-2.44-1.79-.89-3.51-1.9-5-3.1-1.49-1.19-2.8-2.62-3.69-4.35-.95-1.73-1.37-3.87-1.37-6.37,0-2.98.65-5.54,2.02-7.68s3.15-3.81,5.36-4.94c2.26-1.13,4.82-1.73,7.62-1.73,2.38,0,4.58.48,6.73,1.37,2.14.89,3.87,2.26,5.24,4.11s2.02,4.23,2.02,7.08c0,2.62-.65,5-2.02,7.08s-3.51,4.05-6.43,5.89l-3.99-.77c3.33-1.85,5.71-3.69,7.14-5.59,1.43-1.96,2.14-4.05,2.14-6.37s-.54-4.17-1.67-5.54c-1.07-1.43-2.44-2.44-4.11-3.1-1.67-.65-3.33-1.01-5-1.01-2.8,0-5.12.77-6.96,2.38s-2.8,3.75-2.8,6.55c0,1.96.48,3.57,1.37,4.88.95,1.25,2.14,2.38,3.69,3.33,1.55.89,3.21,1.73,5,2.44,1.85.71,3.69,1.55,5.54,2.44,1.85.83,3.57,1.85,5.12,3.1,1.55,1.19,2.8,2.74,3.69,4.58.95,1.85,1.37,4.11,1.37,6.79,0,2.26-.36,4.23-1.07,5.89-.65,1.67-1.55,3.1-2.68,4.29-1.13,1.13-2.38,2.02-3.81,2.68-1.37.65-2.86,1.19-4.4,1.49-1.55.3-3.04.48-4.46.48h-.12Z"/>
  <path d="m610.56,167.42c-3.04,0-5.65-.54-7.98-1.67-2.26-1.13-3.99-2.56-5.24-4.35-1.25-1.85-1.9-3.75-1.9-5.77l4.17,3.45c1.19,1.9,2.74,3.21,4.7,4.05,1.96.71,3.99,1.13,6.07,1.13,3.87,0,6.67-.95,8.39-2.92,1.79-1.96,2.68-4.76,2.68-8.45,0-2.5-.54-4.64-1.55-6.37-1.01-1.79-2.56-3.15-4.7-4.11-2.02-.95-4.64-1.43-7.74-1.43v-2.74c1.9,0,4.05.24,6.37.65,2.38.42,4.64,1.19,6.79,2.26,2.2,1.07,3.99,2.5,5.36,4.4,1.37,1.85,2.08,4.17,2.08,7.02,0,2.32-.48,4.4-1.49,6.25-.95,1.85-2.2,3.39-3.81,4.7-1.61,1.25-3.51,2.26-5.59,2.92s-4.29.95-6.61.95Zm-10.89-8.27l-4.17-3.45c0-1.67.36-2.98,1.13-3.87s1.73-1.37,2.74-1.37,1.96.42,2.74,1.25c.77.83,1.13,1.85,1.13,3.1s-.36,2.14-1.07,2.98c-.71.77-1.49,1.25-2.44,1.37h-.06Zm.54-28.57c-1.01,0-1.9-.48-2.74-1.37-.77-.95-1.13-2.26-1.13-3.87l3.81-3.45c.77,0,1.37.24,1.96.65.54.36,1.01.89,1.31,1.61.36.65.54,1.37.54,2.14,0,1.19-.36,2.26-1.13,3.1-.77.83-1.67,1.25-2.74,1.25l.12-.06Zm7.32,9.64v-1.96c1.25,0,2.56-.18,3.81-.54,1.37-.42,2.62-1.07,3.75-1.96,1.13-.89,2.08-2.08,2.8-3.63.77-1.61,1.13-3.51,1.13-5.83,0-3.39-.89-5.95-2.68-7.56-1.79-1.67-4.05-2.5-6.79-2.5-2.26,0-4.29.54-6.01,1.67-1.67,1.07-2.8,2.44-3.39,4.11l-3.81,3.45c0-1.85.54-3.69,1.61-5.59,1.13-1.9,2.8-3.51,4.94-4.82,2.2-1.31,4.88-1.96,8.15-1.96,1.85,0,3.63.24,5.36.77,1.73.48,3.27,1.25,4.7,2.26,1.37,1.01,2.5,2.26,3.27,3.87.83,1.55,1.25,3.33,1.25,5.42,0,2.5-.54,4.64-1.61,6.55-1.07,1.85-2.5,3.39-4.29,4.64-1.79,1.19-3.75,2.14-5.83,2.74-2.14.6-4.29.89-6.43.89h.06Z"/>
</svg>