<svg width="140" height="16" viewBox="0 0 140 16" fill="none" xmlns="http://www.w3.org/2000/svg">
<path d="M50.2883 11.9788C50.2687 12.1462 50.2491 12.2764 50.2216 12.3657C50.1903 12.4587 50.1549 12.6075 50.104 12.8121C50.0569 13.0167 49.9785 13.1841 49.8687 13.3106C49.7629 13.4408 49.6335 13.5971 49.4767 13.7831C49.3198 13.9691 49.1277 14.1179 48.8807 14.2369C48.6376 14.356 48.3631 14.4788 48.0612 14.5978C47.7593 14.7168 47.3869 14.8098 46.9595 14.8657C46.5321 14.9215 46.0616 14.9475 45.5558 14.9475H42.474V0.204614H44.952V0H37.8984V0.204614H40.2587V14.9475H37.8984V15.1595H50.5314V11.7073H50.3157C50.3196 11.7184 50.3118 11.8114 50.2883 11.9788Z" fill="white"/>
<path d="M59.2094 2.81614L62.1093 10.3792H56.251L59.2094 2.81614ZM56.2315 10.4722V10.5838H62.1873L62.5653 11.5584C62.8148 11.0525 63.1656 10.5205 63.6217 9.9588C63.7503 9.79883 63.8789 9.65002 64.0075 9.51238L60.2969 0H60.063L54.2436 14.9475H52.2168V15.1595H56.5433V14.9475H54.4775L56.2315 10.4722Z" fill="white"/>
<path d="M36.8156 11.9788C36.796 12.1462 36.7765 12.2764 36.749 12.3657C36.7176 12.4587 36.6823 12.6075 36.6314 12.8121C36.5843 13.0167 36.5059 13.1841 36.3961 13.3106C36.2903 13.4408 36.1609 13.5971 36.004 13.7831C35.8472 13.9691 35.6512 14.1179 35.4081 14.2369C35.165 14.356 34.8905 14.4788 34.5886 14.5978C34.2867 14.7168 33.9142 14.8098 33.4868 14.8657C33.0595 14.9215 32.589 14.9475 32.0832 14.9475H29.0014V0.204614H31.4794V0H24.4258V0.204614H26.7861V14.9475H24.4258V15.1595H37.0587V11.7073H36.8431C36.847 11.7184 36.8352 11.8114 36.8156 11.9788Z" fill="white"/>
<path d="M16.8457 0.204614H19.1003V14.9587H16.8457V15.1595H23.5833V14.9587H21.235V0.204614H23.5833V0H16.8457V0.204614Z" fill="white"/>
<path d="M11.0187 0.204815H12.9976L8.46472 12.3518L3.99523 0.204815H5.9742V0H0V0.204815H1.84825L7.42295 15.1595H7.62833L13.2179 0.204815H15.1595V0H11.0187V0.204815Z" fill="white"/>
<path d="M64.9551 13.4763C64.3692 14.1426 63.8239 14.5147 63.2933 14.6229L63.4333 14.9679H61.4805V15.1607H67.3758V14.9679H65.5593L64.9551 13.4763Z" fill="white"/>
<path d="M114.539 0H110.165V0.204815H112.253L107.47 12.3518L102.753 0.204815H104.842V0H98.5371V0.204815H100.488L106.371 15.1595H106.587L112.49 0.204815H114.539V0Z" fill="white"/>
<path d="M139.521 8.44801C139.199 7.89116 138.774 7.48085 138.258 7.20975C137.739 6.93499 137.174 6.70786 136.559 6.51736C135.945 6.32685 135.323 6.16199 134.701 6.01545C134.079 5.86891 133.514 5.69673 132.995 5.49524C132.475 5.29375 132.062 4.98601 131.739 4.5757C131.417 4.16539 131.258 3.64518 131.258 3.02605C131.258 2.48019 131.436 1.96729 131.804 1.4947C132.172 1.02211 132.615 0.685076 133.143 0.483584C133.624 0.300409 134.132 0.208822 134.663 0.208822C137.014 0.208822 138.361 1.55698 138.71 4.25698H138.926V0H138.71C138.71 0.399321 138.399 0.600807 137.784 0.600807C137.348 0.600807 136.904 0.509224 136.453 0.318722C135.953 0.109903 135.376 0 134.735 0C134 0 133.34 0.146533 132.744 0.428622C131.997 0.783981 131.413 1.29321 130.989 1.95997C130.564 2.62673 130.348 3.33744 130.348 4.09211C130.348 4.84679 130.507 5.54286 130.829 6.07773C131.152 6.61627 131.565 7.01559 132.073 7.27936C132.581 7.54313 133.15 7.76294 133.761 7.94612C134.375 8.12929 134.997 8.30147 135.619 8.46632C136.241 8.63118 136.806 8.82169 137.318 9.0415C137.83 9.26131 138.243 9.60567 138.562 10.0709C138.884 10.5362 139.043 11.1187 139.043 11.8221C139.055 12.9138 138.581 13.7454 137.629 14.3023C136.855 14.7419 135.835 14.958 134.572 14.958C133.309 14.958 132.27 14.5587 131.402 13.7637C130.533 12.9724 130.101 12.0602 130.101 11.0381V10.5838H129.893V15.1595H130.101V15.0313L130.12 15.1595C130.12 14.7126 130.48 14.4855 131.186 14.4855C131.656 14.4855 132.138 14.577 132.631 14.7675C133.234 15.0313 133.886 15.1595 134.584 15.1595C136.658 15.1595 138.11 14.5844 138.952 13.4267C139.65 12.5804 139.999 11.595 139.999 10.4739C140.003 9.67894 139.84 9.00486 139.521 8.44801Z" fill="white"/>
<path d="M90.957 0.204614H93.2116V14.9587H90.957V15.1595H97.6946V14.9587H95.3464V0.204614H97.6946V0H90.957V0.204614Z" fill="white"/>
<path d="M88.6388 2.22529C87.099 0.741763 85.2182 0 82.9927 0H75.7988V0.186373H78.1772V2.27002C78.569 1.87491 78.9491 1.59162 79.3291 1.40898C79.7053 1.21515 80.0658 1.10705 80.3988 1.07723V0.197554H82.6518C83.6352 0.197554 84.4855 0.346646 85.2065 0.63366C85.9274 0.920673 86.4838 1.29343 86.8835 1.73699C87.2831 2.18429 87.5965 2.74713 87.8199 3.43298C88.0432 4.11883 88.1921 4.77859 88.247 5.40853C88.3058 6.03847 88.3253 6.77278 88.3136 7.60773C88.3214 8.74833 88.247 9.73982 88.0785 10.5934C87.9139 11.447 87.6318 12.2148 87.2321 12.9007C86.8325 13.5865 86.2565 14.1159 85.4964 14.4774C84.7363 14.839 83.8116 15.0142 82.7184 15.0142L82.7497 14.9843H80.3988V5.82228C79.9952 6.39258 79.5055 7.01878 78.9295 7.70463C78.6748 8.00656 78.424 8.30103 78.1772 8.58432V10.7462C78.2947 10.6493 78.4162 10.6009 78.5102 10.5785L78.5847 10.5599H78.6591C79.0862 10.5599 79.3957 10.8618 79.3957 11.2793C79.3957 11.4545 79.3526 11.6147 79.2625 11.7489C79.0431 12.103 78.7924 12.4497 78.5102 12.774C78.4045 12.9007 78.2947 13.0274 78.1772 13.1504V14.9657H75.7988V15.1595H82.9927C85.1869 15.1595 87.0558 14.4252 88.6192 12.9529C90.1786 11.4768 90.9584 9.69882 90.9584 7.61145L90.9466 7.59281C90.9466 5.49799 90.1787 3.70881 88.6388 2.22529Z" fill="white"/>
<path d="M125.715 8.04816C125.715 8.74331 125.704 9.2972 125.685 9.71355C125.667 10.1299 125.611 10.6392 125.528 11.2303C125.443 11.8213 125.323 12.3046 125.155 12.6726C124.986 13.0406 124.747 13.4124 124.43 13.773C124.112 14.1335 123.723 14.4123 123.267 14.6056C122.605 14.8361 121.936 14.9588 121.26 14.9588C120.636 14.97 119.985 14.8473 119.297 14.6056C118.841 14.4123 118.449 14.1447 118.135 13.7915C117.817 13.4384 117.578 13.0778 117.41 12.7098C117.242 12.338 117.111 11.8585 117.021 11.2674C116.928 10.6764 116.871 10.1671 116.853 9.7433C116.834 9.31952 116.823 8.7619 116.823 8.0779L116.842 8.05931V7.35673C116.842 6.46083 116.871 5.6839 116.935 5.01477C117.002 4.34936 117.122 3.69138 117.309 3.03712C117.496 2.38285 117.772 1.8364 118.146 1.4089C118.52 0.985113 118.983 0.676573 119.54 0.483268C120.135 0.308551 120.71 0.215615 121.271 0.215615C121.895 0.215615 122.497 0.308546 123.084 0.50185C123.633 0.706307 124.089 1.01857 124.452 1.44607C124.815 1.86985 125.084 2.40887 125.259 3.0557C125.435 3.70253 125.558 4.36051 125.622 5.01477C125.685 5.67275 125.715 6.44968 125.715 7.34557V8.04816ZM124.77 1.08176C123.719 0.360589 122.557 0 121.275 0C120.28 0 119.357 0.223047 118.501 0.665417C117.645 1.1115 116.931 1.68398 116.352 2.394C115.776 3.10774 115.328 3.91071 115.014 4.81775C114.696 5.7248 114.539 6.65042 114.539 7.58348C114.539 8.88829 114.819 10.1076 115.376 11.2563C115.933 12.4049 116.733 13.338 117.776 14.0666C118.819 14.7989 119.981 15.1595 121.264 15.1595L121.275 15.1149C122.28 15.1149 123.211 14.8919 124.063 14.4495C124.919 14.0034 125.626 13.4309 126.194 12.7209C126.762 12.0072 127.207 11.2042 127.532 10.3083C127.857 9.41245 128.014 8.49424 128.014 7.56118C128.014 6.25637 127.734 5.03708 127.177 3.8884C126.62 2.73601 125.82 1.80294 124.77 1.08176Z" fill="white"/>
<path d="M65.9691 10.1078C65.8716 10.3407 65.6991 10.6573 65.4629 11.054C65.2492 11.4107 65.0691 11.7128 64.9116 11.9567C64.7691 12.1896 64.6491 12.3607 64.5516 12.4698C64.0717 13.0886 63.6667 13.3943 63.3442 13.3943C63.1304 13.3943 63.0255 13.2414 63.0255 12.943C63.0255 12.3679 63.3592 11.6546 64.0229 10.8029C64.6866 9.95125 65.3016 9.52906 65.8679 9.52906C66.0104 9.52906 66.0854 9.5509 66.1004 9.59094L66.1228 9.61277C66.1378 9.61277 66.1454 9.62733 66.1454 9.65645C66.1379 9.7256 66.0816 9.87482 65.9691 10.1078ZM68.0878 5.6056C68.9503 3.37091 69.734 2.25356 70.439 2.25356C70.694 2.25356 70.8215 2.40642 70.8215 2.70487C70.8215 3.9678 69.449 6.39903 66.7116 10.0058C67.0491 8.55365 67.5104 7.08327 68.0878 5.6056ZM70.4015 10.2315C70.7953 9.60186 71.1065 9.28522 71.3352 9.28522C71.504 9.28522 71.5903 9.36892 71.5903 9.5327C71.5903 9.86026 71.3578 10.2461 70.889 10.6865C70.4953 11.0686 70.1128 11.3379 69.7453 11.4872C69.8278 11.1705 70.0453 10.7556 70.4015 10.2315ZM74.6014 9.75836C74.8152 9.15419 75.1677 8.39352 75.6589 7.47635C76.0826 6.68292 76.5214 5.94772 76.9714 5.2744C77.4251 4.58652 77.8189 4.02604 78.1601 3.58929C78.7526 2.82134 79.2551 2.43554 79.6638 2.43554C79.8476 2.43554 79.9376 2.56657 79.9376 2.82498C79.9376 3.01788 79.8738 3.31268 79.7463 3.70939C79.4763 4.53193 78.6588 5.86038 77.2864 7.702C76.6789 8.5391 76.0976 9.27065 75.5501 9.90394C75.0139 10.5227 74.5489 10.9958 74.1514 11.3234C74.2564 10.883 74.4027 10.3625 74.6014 9.75836ZM76.8889 13.3179C77.2001 13.0449 77.4739 12.7537 77.7139 12.4553C77.9688 12.1532 78.1939 11.8365 78.3926 11.509C78.4226 11.4653 78.4376 11.4144 78.4376 11.3452C78.4376 11.2506 78.3926 11.1996 78.3101 11.1996C78.2538 11.2142 78.2051 11.2542 78.1601 11.3234C77.5939 12.1314 77.0426 12.761 76.5064 13.2159C75.9852 13.6563 75.5239 13.8747 75.1302 13.8747C74.7364 13.8747 74.4589 13.7582 74.3052 13.5253C74.1477 13.2778 74.0727 12.9211 74.0727 12.4553V12.1277C74.0877 12.004 74.1027 11.8875 74.1139 11.7783C74.7364 11.2142 75.3777 10.5845 76.0414 9.88574C76.7051 9.17239 77.3989 8.37896 78.1189 7.49819C79.9413 5.27805 80.8525 3.69483 80.8525 2.74854C80.8525 2.5702 80.7738 2.38458 80.62 2.19169C80.4775 2.01335 80.3163 1.926 80.1326 1.926C79.8626 1.926 79.5588 2.01335 79.2213 2.19169C78.8838 2.35547 78.5276 2.63936 78.1639 3.03607C77.9389 3.28356 77.6614 3.60384 77.3389 4.0042C77.0126 4.40091 76.6826 4.84129 76.3414 5.32172C76.0151 5.78758 75.7189 6.26073 75.4526 6.74115C75.1714 7.26161 74.8602 7.83302 74.5189 8.44811C74.1814 9.06683 73.889 9.69648 73.649 10.3407C73.484 10.8138 73.379 11.2761 73.334 11.7346C73.124 11.9967 72.8915 12.2806 72.6252 12.5863C72.329 12.9139 72.0028 13.1977 71.6503 13.4307C71.2978 13.6636 70.9077 13.7801 70.484 13.7801C70.1465 13.7801 69.899 13.6491 69.7415 13.3906C69.584 13.1322 69.509 12.8411 69.509 12.5281C69.509 12.2951 69.539 12.0877 69.5953 11.9093C69.8353 11.8256 70.0978 11.691 70.379 11.4981C70.6753 11.3052 70.9603 11.0868 71.2265 10.8393C71.8903 10.2351 72.224 9.72196 72.224 9.29613C72.224 9.10324 72.1677 8.96129 72.0552 8.86302C71.9577 8.76839 71.8378 8.71744 71.6953 8.71744C71.3278 8.71744 70.9678 8.84118 70.6153 9.08868C70.2628 9.33617 69.9365 9.65281 69.6403 10.035C69.359 10.4171 69.1341 10.8284 68.9616 11.2688C68.8303 11.5963 68.7516 11.9057 68.7216 12.2005C68.6316 12.3024 68.534 12.4152 68.4291 12.5426C67.8628 13.2014 67.4316 13.529 67.1353 13.529C66.6816 13.529 66.4566 13.0085 66.4566 11.9676C66.4566 11.5272 66.4979 11.0759 66.5841 10.61C69.9628 6.75571 71.6503 4.10974 71.6503 2.67211C71.6503 2.01335 71.354 1.68579 70.7615 1.68579C69.8428 1.68579 68.9053 2.64664 67.9416 4.56469C67.6453 5.1543 67.3678 5.79122 67.1166 6.4791C66.8616 7.16698 66.6141 7.90581 66.3741 8.69924C66.3216 8.6956 66.2691 8.69196 66.2166 8.69196C65.8303 8.69196 65.4366 8.82299 65.0392 9.08868C64.5854 9.3762 64.1279 9.81659 63.6629 10.4062C62.7704 11.5163 62.3242 12.499 62.3242 13.347C62.3242 13.8128 62.5417 14.0458 62.9805 14.0458C63.7304 14.0458 64.6566 13.0922 65.7554 11.1887C65.6691 11.64 65.6279 12.0404 65.6279 12.3825C65.6279 13.4671 65.9954 14.0094 66.7304 14.0094C67.3866 14.0094 68.0503 13.5945 68.7216 12.7683C68.7703 13.2305 68.9428 13.569 69.2353 13.7837C69.5878 14.0458 69.9965 14.1732 70.4653 14.1732C70.9865 14.1732 71.4477 14.0349 71.8415 13.7619C72.2352 13.4889 72.5915 13.1577 72.899 12.7756C73.0415 12.5972 73.1765 12.4262 73.3077 12.2624C73.3077 12.3788 73.3152 12.4953 73.3265 12.6118C73.3565 12.7355 73.3752 12.8593 73.3902 12.983C73.5739 13.8747 74.0464 14.3187 74.8114 14.3187C75.1489 14.3187 75.4901 14.2314 75.8276 14.0531C76.1839 13.8638 76.5401 13.6236 76.8889 13.3179Z" fill="white"/>
</svg>
