<svg width="38" height="37" viewBox="0 0 38 37" fill="none" xmlns="http://www.w3.org/2000/svg">
<path d="M18.5124 3.02056e-09C13.9154 -7.99054e-05 8.52151 1.58548 7.51732 7.62208C1.48072 8.62628 0.253975 14.0223 0.253906 18.6159C0.254023 23.4987 2.05254 28.108 7.75642 29.3705C9.01894 35.0744 13.7991 36.8738 18.5125 36.8738C23.1069 36.8738 28.5006 35.6462 29.5048 29.6096C35.5414 28.6054 37.1275 23.2096 37.1275 18.6158C37.1276 13.5437 34.9696 9.1237 29.2657 7.86119C28.0032 2.15731 23.5241 8.71539e-05 18.5124 3.02056e-09ZM18.5125 3.58005C23.9374 3.58005 26.746 3.58005 28.4353 7.70589C27.5833 7.56998 26.6535 7.49414 25.6319 7.48959L19.3878 7.46178L19.3907 8.11333L21.3998 8.12228L21.419 12.4361L15.5484 12.41L15.5325 8.11269L17.5688 8.12198L17.5659 7.47043L10.5613 7.43924C10.0289 7.43687 8.80397 7.46426 8.31466 7.51431C9.61635 3.03019 14.2128 3.58005 18.5125 3.58005ZM28.681 8.44594C28.8844 9.20239 28.9795 10.0387 28.9833 10.949L28.9901 12.4694L24.6763 12.4502L24.6571 8.13633L26.1775 8.14311C27.088 8.1476 27.9243 8.24273 28.681 8.44594ZM21.4333 15.6936L21.4594 21.5642L15.5889 21.538L15.5627 15.6675L21.4333 15.6936ZM12.2905 12.3952L7.9662 12.3792L7.96051 11.1031C7.95695 10.3019 8.02263 8.87915 8.1422 8.2474C8.77417 8.12761 10.1967 8.06215 10.9979 8.06572L12.274 8.0714L12.2905 12.3952ZM3.47581 18.6158C3.47581 14.3148 2.92521 9.72133 7.40932 8.41919C7.35927 8.90851 7.33211 10.1332 7.33426 10.6659L7.36545 17.6704L8.01699 17.6733L8.0077 15.637L12.305 15.653L12.3311 21.5235L8.01729 21.5043L8.00834 19.4952L7.3568 19.4923L7.3846 25.7365C7.38915 26.7581 7.46499 27.6879 7.60091 28.5399C2.76024 27.2079 3.47581 24.1314 3.47581 18.6158ZM12.3456 24.7813L12.3648 29.0951L10.8444 29.0883C9.93438 29.0843 9.09785 28.9889 8.3414 28.7859C8.13796 28.0295 8.04284 27.1932 8.03901 26.2829L8.03224 24.7625L12.3456 24.7813ZM18.5118 33.6518C12.9933 33.6518 10.2785 32.9358 8.5868 29.5258C9.43878 29.6617 10.3686 29.7375 11.3902 29.7421L17.6343 29.7699L17.6314 29.1183L15.6223 29.1094L15.6031 24.7955L21.4737 24.8217L21.4896 29.119L19.4533 29.1097L19.4562 29.7612L26.4608 29.7924C26.9933 29.7948 28.2182 29.7674 28.7075 29.7173C27.104 34.0098 22.4504 33.6518 18.5118 33.6518ZM24.7316 24.8364L29.0559 24.8525L29.0616 26.1286C29.0652 26.9297 28.9997 28.3523 28.8799 28.9843C28.248 29.104 26.8254 29.1695 26.0242 29.1659L24.7482 29.1603L24.7316 24.8364ZM33.5476 18.6158C33.5476 22.9169 34.0969 27.5103 29.6128 28.8125C29.6629 28.3231 29.69 27.0985 29.6879 26.5658L29.6567 19.5612L29.0051 19.5583L29.0144 21.5946L24.7171 21.5787L24.691 15.7081L29.0048 15.7273L29.0138 17.7364L29.6653 17.7393L29.6375 11.4952C29.633 10.4736 29.5571 9.54377 29.4212 8.69179C33.5476 10.024 33.5476 13.1905 33.5476 18.6158Z" fill="#2C3729"/>
</svg>
