<svg width="268" height="30" viewBox="0 0 268 30" fill="none" xmlns="http://www.w3.org/2000/svg">
<path d="M96.3992 22.9629C96.3616 23.2838 96.324 23.5334 96.2714 23.7045C96.2113 23.8828 96.1436 24.1681 96.0459 24.5603C95.9557 24.9525 95.8054 25.2734 95.595 25.5159C95.392 25.7655 95.144 26.065 94.8433 26.4216C94.5427 26.7781 94.1744 27.0634 93.7009 27.2916C93.2349 27.5198 92.7088 27.7551 92.1301 27.9833C91.5513 28.2115 90.8373 28.3898 90.0181 28.4968C89.1988 28.6037 88.2968 28.6537 87.3273 28.6537H81.4196V0.392236H86.1699V0H72.6484V0.392236H77.173V28.6537H72.6484V29.0601H96.8652V22.4423H96.4518C96.4593 22.4637 96.4443 22.642 96.3992 22.9629Z" fill="#2C3729"/>
<path d="M113.502 5.39842L119.061 19.8964H107.831L113.502 5.39842ZM107.794 20.0747V20.2886H119.211L119.935 22.157C120.414 21.1872 121.086 20.1674 121.96 19.0906C122.207 18.7839 122.453 18.4987 122.7 18.2348L115.587 0H115.138L103.983 28.6536H100.098V29.0601H108.391V28.6536H104.431L107.794 20.0747Z" fill="#2C3729"/>
<path d="M70.5711 22.9629C70.5335 23.2838 70.496 23.5334 70.4434 23.7045C70.3833 23.8828 70.3156 24.1681 70.2179 24.5603C70.1277 24.9525 69.9774 25.2734 69.7669 25.5159C69.564 25.7655 69.316 26.065 69.0153 26.4216C68.7147 26.7781 68.3389 27.0634 67.8729 27.2916C67.4069 27.5198 66.8808 27.7551 66.302 27.9833C65.7233 28.2115 65.0092 28.3898 64.19 28.4968C63.3707 28.6037 62.4688 28.6537 61.4992 28.6537H55.5916V0.392236H60.3417V0H46.8203V0.392236H51.345V28.6537H46.8203V29.0601H71.0371V22.4423H70.6238C70.6313 22.4637 70.6087 22.642 70.5711 22.9629Z" fill="#2C3729"/>
<path d="M32.2891 0.392236H36.611V28.6751H32.2891V29.0601H45.2047V28.6751H40.7032V0.392236H45.2047V0H32.2891V0.392236Z" fill="#2C3729"/>
<path d="M21.1223 0.392621H24.9158L16.2265 23.6778L7.65868 0.392621H11.4523V0H0V0.392621H3.54301L14.2295 29.0601H14.6232L25.3382 0.392621H29.0601V0H21.1223V0.392621Z" fill="#2C3729"/>
<path d="M124.516 25.832C123.393 27.1093 122.348 27.8225 121.331 28.03L121.599 28.6914H117.855V29.0609H129.157V28.6914H125.674L124.516 25.832Z" fill="#2C3729"/>
<path d="M219.565 0H211.181V0.392621H215.184L206.014 23.6778L196.973 0.392621H200.976V0H188.891V0.392621H192.63L203.907 29.0601H204.322L215.637 0.392621H219.565V0Z" fill="#2C3729"/>
<path d="M267.082 16.1945C266.464 15.127 265.65 14.3404 264.662 13.8208C263.666 13.2941 262.583 12.8587 261.405 12.4935C260.227 12.1283 259.035 11.8123 257.843 11.5313C256.651 11.2504 255.567 10.9204 254.572 10.5341C253.576 10.1479 252.783 9.55795 252.165 8.77141C251.547 7.98486 251.242 6.98764 251.242 5.8008C251.242 4.75441 251.584 3.77121 252.289 2.86527C252.994 1.95934 253.845 1.31326 254.855 0.927008C255.778 0.57587 256.752 0.400302 257.77 0.400302C262.277 0.400302 264.858 2.98466 265.527 8.16043H265.941V0H265.527C265.527 0.76548 264.931 1.15172 263.753 1.15172C262.917 1.15172 262.066 0.976158 261.201 0.610976C260.242 0.210679 259.137 0 257.908 0C256.498 0 255.233 0.280898 254.092 0.821649C252.66 1.50286 251.54 2.47903 250.726 3.75717C249.912 5.03531 249.497 6.39771 249.497 7.8444C249.497 9.29108 249.803 10.6254 250.421 11.6507C251.038 12.6831 251.831 13.4486 252.805 13.9542C253.779 14.4598 254.87 14.8812 256.04 15.2323C257.218 15.5835 258.41 15.9135 259.602 16.2296C260.794 16.5456 261.877 16.9108 262.859 17.3321C263.84 17.7535 264.632 18.4136 265.243 19.3055C265.861 20.1974 266.166 21.314 266.166 22.6624C266.188 24.7552 265.279 26.3494 263.455 27.4168C261.972 28.2595 260.016 28.6739 257.596 28.6739C255.175 28.6739 253.183 27.9084 251.518 26.3845C249.854 24.8676 249.025 23.1189 249.025 21.1595V20.2887H248.625V29.0601H249.025V28.8143L249.061 29.0601C249.061 28.2034 249.752 27.768 251.104 27.768C252.005 27.768 252.929 27.9435 253.874 28.3087C255.029 28.8143 256.28 29.0601 257.617 29.0601C261.594 29.0601 264.378 27.9576 265.992 25.7384C267.329 24.1161 267.998 22.227 267.998 20.078C268.006 18.5541 267.693 17.2619 267.082 16.1945Z" fill="#2C3729"/>
<path d="M174.359 0.392236H178.681V28.6751H174.359V29.0601H187.275V28.6751H182.774V0.392236H187.275V0H174.359V0.392236Z" fill="#2C3729"/>
<path d="M169.914 4.26578C166.963 1.42193 163.357 0 159.091 0H145.301V0.357268H149.86V4.35152C150.611 3.59411 151.34 3.05106 152.068 2.70094C152.789 2.32938 153.48 2.12216 154.119 2.065V0.378703H158.438C160.323 0.378703 161.953 0.664505 163.335 1.2147C164.717 1.76489 165.783 2.47944 166.55 3.32974C167.316 4.18718 167.916 5.26612 168.345 6.58086C168.773 7.89561 169.058 9.16035 169.163 10.3679C169.276 11.5755 169.314 12.9831 169.291 14.5837C169.306 16.7701 169.163 18.6708 168.84 20.3071C168.525 21.9434 167.984 23.4153 167.218 24.7301C166.452 26.0448 165.348 27.0594 163.891 27.7525C162.433 28.4456 160.661 28.7815 158.565 28.7815L158.625 28.7243H154.119V11.161C153.345 12.2543 152.406 13.4547 151.302 14.7694C150.814 15.3482 150.333 15.9127 149.86 16.4557V20.6C150.085 20.4143 150.318 20.3214 150.498 20.2785L150.641 20.2428H150.784C151.602 20.2428 152.196 20.8216 152.196 21.6218C152.196 21.9577 152.113 22.2649 151.941 22.5221C151.52 23.201 151.039 23.8655 150.498 24.4871C150.296 24.7301 150.085 24.973 149.86 25.2088V28.6886H145.301V29.0601H159.091C163.297 29.0601 166.88 27.6525 169.877 24.8301C172.866 22.0005 174.361 18.5922 174.361 14.5908L174.338 14.5551C174.338 10.5394 172.866 7.10963 169.914 4.26578Z" fill="#2C3729"/>
<path d="M240.991 15.4279C240.991 16.7605 240.969 17.8223 240.934 18.6204C240.898 19.4186 240.79 20.3948 240.633 21.5279C240.468 22.6609 240.239 23.5873 239.916 24.2928C239.594 24.9983 239.135 25.7109 238.526 26.4021C237.917 27.0934 237.172 27.6278 236.298 27.9984C235.029 28.4402 233.747 28.6753 232.45 28.6753C231.253 28.6967 230.006 28.4616 228.688 27.9984C227.814 27.6278 227.061 27.1147 226.46 26.4377C225.85 25.7608 225.392 25.0695 225.069 24.3641C224.747 23.6514 224.496 22.7322 224.324 21.5991C224.145 20.4661 224.038 19.4898 224.002 18.6775C223.966 17.8651 223.944 16.7962 223.944 15.485L223.98 15.4493V14.1025C223.98 12.3851 224.038 10.8958 224.159 9.61309C224.288 8.33752 224.518 7.0762 224.876 5.82201C225.234 4.56782 225.764 3.52029 226.481 2.70079C227.197 1.88842 228.086 1.29696 229.154 0.926403C230.293 0.591477 231.396 0.413325 232.471 0.413325C233.668 0.413325 234.822 0.591469 235.947 0.962025C237 1.35396 237.874 1.95256 238.569 2.77205C239.264 3.58443 239.78 4.6177 240.117 5.85764C240.454 7.09757 240.69 8.3589 240.812 9.61309C240.934 10.8744 240.991 12.3637 240.991 14.0811V15.4279ZM239.178 2.07369C237.165 0.691232 234.936 0 232.478 0C230.572 0 228.803 0.427571 227.162 1.27557C225.521 2.1307 224.152 3.22811 223.042 4.58919C221.938 5.9574 221.078 7.49665 220.476 9.23541C219.867 10.9742 219.566 12.7485 219.566 14.5372C219.566 17.0384 220.104 19.3758 221.171 21.5778C222.239 23.7797 223.772 25.5684 225.772 26.9651C227.771 28.3689 229.999 29.0601 232.457 29.0601L232.478 28.9746C234.406 28.9746 236.19 28.5471 237.824 27.6991C239.465 26.8439 240.819 25.7465 241.908 24.3854C242.997 23.0172 243.85 21.478 244.473 19.7606C245.097 18.0432 245.398 16.2831 245.398 14.4944C245.398 11.9932 244.86 9.65585 243.793 7.45389C242.725 5.24481 241.192 3.45615 239.178 2.07369Z" fill="#2C3729"/>
<path d="M126.456 19.373C126.269 19.8195 125.938 20.4265 125.485 21.187C125.076 21.8708 124.731 22.4498 124.429 22.9173C124.156 23.3638 123.926 23.6917 123.739 23.901C122.819 25.0871 122.042 25.6732 121.424 25.6732C121.014 25.6732 120.813 25.3801 120.813 24.808C120.813 23.7057 121.453 22.3382 122.725 20.7056C123.997 19.073 125.176 18.2637 126.262 18.2637C126.535 18.2637 126.679 18.3056 126.707 18.3823L126.751 18.4242C126.779 18.4242 126.794 18.4521 126.794 18.5079C126.779 18.6405 126.672 18.9265 126.456 19.373ZM130.517 10.7426C132.171 6.45881 133.673 4.31691 135.024 4.31691C135.513 4.31691 135.758 4.60993 135.758 5.18204C135.758 7.60302 133.127 12.2636 127.879 19.1777C128.526 16.3939 129.41 13.5752 130.517 10.7426ZM134.953 19.6103C135.707 18.4033 136.304 17.7963 136.742 17.7963C137.066 17.7963 137.231 17.9567 137.231 18.2707C137.231 18.8986 136.786 19.6382 135.887 20.4824C135.132 21.2149 134.399 21.7312 133.695 22.0173C133.853 21.4103 134.27 20.6149 134.953 19.6103ZM143.004 18.7033C143.413 17.5451 144.089 16.0869 145.031 14.3287C145.843 12.8078 146.684 11.3984 147.547 10.1077C148.416 8.78909 149.171 7.71466 149.825 6.87744C150.961 5.40531 151.924 4.66575 152.708 4.66575C153.06 4.66575 153.233 4.91693 153.233 5.41229C153.233 5.78206 153.111 6.34718 152.866 7.10766C152.349 8.68444 150.781 11.231 148.15 14.7613C146.986 16.366 145.872 17.7683 144.822 18.9823C143.794 20.1684 142.903 21.0754 142.141 21.7033C142.342 20.8591 142.623 19.8614 143.004 18.7033ZM147.389 25.5266C147.985 25.0034 148.51 24.4452 148.97 23.8731C149.459 23.294 149.89 22.6871 150.271 22.0591C150.329 21.9754 150.357 21.8777 150.357 21.7452C150.357 21.5638 150.271 21.4661 150.113 21.4661C150.005 21.494 149.912 21.5708 149.825 21.7033C148.74 23.2522 147.683 24.4592 146.655 25.3313C145.656 26.1755 144.772 26.5941 144.017 26.5941C143.262 26.5941 142.73 26.3709 142.436 25.9243C142.134 25.4499 141.99 24.7662 141.99 23.8731V23.2452C142.019 23.008 142.048 22.7847 142.069 22.5754C143.262 21.494 144.492 20.287 145.764 18.9474C147.036 17.58 148.366 16.059 149.746 14.3706C153.24 10.1147 154.987 7.07975 154.987 5.26576C154.987 4.92389 154.836 4.56807 154.541 4.19829C154.268 3.85642 153.959 3.68899 153.607 3.68899C153.089 3.68899 152.507 3.85642 151.86 4.19829C151.213 4.51225 150.53 5.05645 149.833 5.81694C149.401 6.29136 148.869 6.90533 148.251 7.67279C147.626 8.43327 146.993 9.27747 146.339 10.1984C145.714 11.0915 145.146 11.9985 144.635 12.9194C144.096 13.9171 143.5 15.0125 142.845 16.1916C142.198 17.3776 141.638 18.5847 141.178 19.8196C140.861 20.7266 140.66 21.6126 140.574 22.4917C140.171 22.994 139.726 23.5382 139.215 24.1243C138.647 24.7522 138.022 25.2964 137.346 25.7429C136.671 26.1895 135.923 26.4127 135.111 26.4127C134.464 26.4127 133.989 26.1616 133.687 25.6662C133.385 25.1708 133.242 24.6127 133.242 24.0127C133.242 23.5662 133.299 23.1685 133.407 22.8266C133.867 22.6661 134.37 22.408 134.909 22.0382C135.477 21.6684 136.024 21.2498 136.534 20.7754C137.806 19.6172 138.446 18.6335 138.446 17.8172C138.446 17.4474 138.338 17.1753 138.123 16.9869C137.936 16.8055 137.706 16.7079 137.433 16.7079C136.728 16.7079 136.038 16.9451 135.362 17.4195C134.687 17.8939 134.061 18.5009 133.493 19.2335C132.954 19.9661 132.523 20.7545 132.192 21.5987C131.941 22.2266 131.79 22.8196 131.732 23.3847C131.56 23.5801 131.373 23.7964 131.171 24.0406C130.086 25.3034 129.259 25.9313 128.691 25.9313C127.822 25.9313 127.39 24.9336 127.39 22.9382C127.39 22.094 127.469 21.2289 127.635 20.3358C134.112 12.9473 137.346 7.87512 137.346 5.11925C137.346 3.85643 136.778 3.22852 135.643 3.22852C133.882 3.22852 132.084 5.07042 130.237 8.74724C129.669 9.87749 129.137 11.0984 128.655 12.4171C128.167 13.7357 127.692 15.152 127.232 16.673C127.132 16.666 127.031 16.659 126.93 16.659C126.19 16.659 125.435 16.9102 124.673 17.4195C123.803 17.9707 122.926 18.8149 122.035 19.9451C120.324 22.0731 119.469 23.9569 119.469 25.5825C119.469 26.4755 119.886 26.922 120.727 26.922C122.164 26.922 123.94 25.0941 126.046 21.4452C125.881 22.3103 125.802 23.0778 125.802 23.7336C125.802 25.8127 126.506 26.8523 127.915 26.8523C129.173 26.8523 130.445 26.0569 131.732 24.4731C131.826 25.3592 132.156 26.0081 132.717 26.4197C133.393 26.922 134.176 27.1662 135.075 27.1662C136.074 27.1662 136.958 26.9011 137.713 26.3778C138.468 25.8546 139.151 25.2197 139.74 24.4871C140.013 24.1452 140.272 23.8173 140.524 23.5034C140.524 23.7266 140.538 23.9499 140.56 24.1731C140.617 24.4103 140.653 24.6476 140.682 24.8848C141.034 26.5941 141.94 27.4453 143.406 27.4453C144.053 27.4453 144.707 27.2779 145.354 26.936C146.037 26.5732 146.72 26.1127 147.389 25.5266Z" fill="#2C3729"/>
</svg>
