<svg width="177" height="154" viewBox="0 0 177 154" fill="none" xmlns="http://www.w3.org/2000/svg">
<path d="M64.1517 149.566C64.1279 149.77 64.104 149.928 64.0707 150.036C64.0325 150.15 63.9896 150.33 63.9276 150.579C63.8704 150.828 63.7751 151.032 63.6416 151.185C63.5128 151.344 63.3555 151.534 63.1648 151.76C62.9741 151.986 62.7405 152.167 62.4401 152.312C62.1445 152.457 61.8108 152.606 61.4437 152.751C61.0766 152.895 60.6237 153.008 60.104 153.076C59.5843 153.144 59.0122 153.176 58.3971 153.176H54.6498V135.249H57.663V135H49.0859V135.249H51.956V153.176H49.0859V153.434H64.4473V149.236H64.1851C64.1898 149.249 64.1803 149.362 64.1517 149.566Z" fill="white"/>
<path d="M74.995 138.424L78.5213 147.621H71.3977L74.995 138.424ZM71.3739 147.734V147.87H78.6161L79.0758 149.055C79.3791 148.44 79.8057 147.793 80.3603 147.11C80.5167 146.915 80.6731 146.734 80.8295 146.567L76.3174 135H76.033L68.9568 153.176H66.4922V153.434H71.7531V153.176H69.2411L71.3739 147.734Z" fill="white"/>
<path d="M47.765 149.566C47.7412 149.77 47.7174 149.928 47.684 150.036C47.6459 150.15 47.6029 150.33 47.5409 150.579C47.4837 150.828 47.3884 151.032 47.2549 151.185C47.1262 151.344 46.9688 151.534 46.7781 151.76C46.5874 151.986 46.349 152.167 46.0534 152.312C45.7578 152.457 45.4241 152.606 45.057 152.751C44.6899 152.895 44.237 153.008 43.7173 153.076C43.1976 153.144 42.6255 153.176 42.0105 153.176H38.2631V135.249H41.2762V135H32.6992V135.249H35.5694V153.176H32.6992V153.434H48.0606V149.236H47.7984C47.8032 149.249 47.7889 149.362 47.765 149.566Z" fill="white"/>
<path d="M23.4805 135.249H26.222V153.189H23.4805V153.434H31.6732V153.189H28.8178V135.249H31.6732V135H23.4805V135.249Z" fill="white"/>
<path d="M16.3985 135.249H18.8048L13.2929 150.02L7.85811 135.249H10.2645V135H3V135.249H5.24743L12.0261 153.434H12.2759L19.0727 135.249H21.4337V135H16.3985V135.249Z" fill="white"/>
<path d="M81.9829 151.385C81.2705 152.195 80.6074 152.647 79.9622 152.779L80.1324 153.199H77.7578V153.433H84.9265V153.199H82.7176L81.9829 151.385Z" fill="white"/>
<path d="M142.278 135H136.96V135.249H139.499L133.682 150.02L127.947 135.249H130.487V135H122.82V135.249H125.192L132.346 153.434H132.609L139.787 135.249H142.278V135Z" fill="white"/>
<path d="M172.419 145.273C172.027 144.595 171.511 144.097 170.883 143.767C170.252 143.433 169.565 143.157 168.818 142.925C168.071 142.693 167.314 142.493 166.558 142.315C165.802 142.136 165.115 141.927 164.483 141.682C163.851 141.437 163.349 141.063 162.957 140.564C162.565 140.065 162.371 139.432 162.371 138.68C162.371 138.016 162.588 137.392 163.035 136.818C163.482 136.243 164.022 135.833 164.663 135.588C165.248 135.365 165.866 135.254 166.512 135.254C169.371 135.254 171.008 136.893 171.432 140.176H171.695V135H171.432C171.432 135.486 171.054 135.731 170.307 135.731C169.777 135.731 169.237 135.619 168.688 135.388C168.08 135.134 167.379 135 166.6 135C165.705 135 164.903 135.178 164.179 135.521C163.27 135.953 162.56 136.573 162.044 137.383C161.527 138.194 161.264 139.058 161.264 139.976C161.264 140.894 161.458 141.74 161.85 142.39C162.242 143.045 162.745 143.531 163.362 143.852C163.98 144.172 164.672 144.44 165.414 144.662C166.161 144.885 166.918 145.094 167.674 145.295C168.43 145.495 169.117 145.727 169.74 145.994C170.362 146.262 170.865 146.68 171.252 147.246C171.644 147.812 171.838 148.52 171.838 149.375C171.852 150.703 171.275 151.714 170.118 152.391C169.177 152.926 167.937 153.189 166.401 153.189C164.866 153.189 163.602 152.703 162.546 151.736C161.49 150.774 160.965 149.665 160.965 148.422V147.87H160.711V153.434H160.965V153.278L160.988 153.434C160.988 152.89 161.426 152.614 162.283 152.614C162.855 152.614 163.441 152.725 164.04 152.957C164.773 153.278 165.567 153.434 166.415 153.434C168.937 153.434 170.704 152.734 171.727 151.327C172.576 150.298 173 149.099 173 147.736C173.005 146.769 172.806 145.95 172.419 145.273Z" fill="white"/>
<path d="M113.602 135.249H116.343V153.189H113.602V153.434H121.794V153.189H118.939V135.249H121.794V135H113.602V135.249Z" fill="white"/>
<path d="M110.781 137.706C108.909 135.902 106.622 135 103.916 135H95.168V135.227H98.06V137.76C98.5364 137.28 98.9986 136.935 99.4608 136.713C99.9181 136.478 100.356 136.346 100.761 136.31V135.24H103.501C104.697 135.24 105.731 135.422 106.607 135.771C107.484 136.12 108.161 136.573 108.647 137.112C109.133 137.656 109.514 138.34 109.785 139.174C110.057 140.008 110.238 140.811 110.305 141.577C110.376 142.343 110.4 143.236 110.386 144.251C110.395 145.638 110.305 146.843 110.1 147.881C109.9 148.919 109.557 149.853 109.071 150.687C108.585 151.521 107.884 152.165 106.96 152.604C106.036 153.044 104.911 153.257 103.582 153.257L103.62 153.221H100.761V142.08C100.271 142.773 99.6751 143.535 98.9748 144.369C98.6651 144.736 98.3601 145.094 98.06 145.438V148.067C98.2029 147.949 98.3506 147.89 98.465 147.863L98.5555 147.841H98.646C99.1653 147.841 99.5417 148.208 99.5417 148.715C99.5417 148.928 99.4893 149.123 99.3797 149.286C99.1129 149.717 98.808 150.139 98.465 150.533C98.3364 150.687 98.2029 150.841 98.06 150.991V153.198H95.168V153.434H103.916C106.584 153.434 108.856 152.541 110.757 150.75C112.654 148.956 113.602 146.794 113.602 144.255L113.587 144.233C113.587 141.685 112.654 139.51 110.781 137.706Z" fill="white"/>
<path d="M155.868 144.786C155.868 145.632 155.854 146.305 155.831 146.811C155.808 147.318 155.74 147.937 155.64 148.656C155.536 149.374 155.39 149.962 155.186 150.41C154.981 150.857 154.69 151.309 154.304 151.748C153.918 152.186 153.445 152.525 152.89 152.76C152.086 153.04 151.272 153.19 150.45 153.19C149.691 153.203 148.9 153.054 148.063 152.76C147.509 152.525 147.032 152.2 146.65 151.77C146.263 151.341 145.973 150.902 145.768 150.455C145.564 150.003 145.404 149.42 145.295 148.701C145.182 147.982 145.114 147.363 145.091 146.848C145.068 146.332 145.054 145.654 145.054 144.823L145.077 144.8V143.946C145.077 142.856 145.114 141.912 145.191 141.098C145.273 140.289 145.418 139.489 145.645 138.693C145.873 137.898 146.209 137.233 146.663 136.713C147.118 136.198 147.682 135.823 148.359 135.588C149.082 135.375 149.781 135.262 150.463 135.262C151.222 135.262 151.954 135.375 152.668 135.61C153.336 135.859 153.89 136.239 154.331 136.758C154.772 137.274 155.099 137.929 155.313 138.716C155.527 139.502 155.677 140.302 155.754 141.098C155.831 141.898 155.868 142.843 155.868 143.932V144.786ZM154.718 136.315C153.44 135.438 152.027 135 150.468 135C149.259 135 148.136 135.271 147.095 135.809C146.054 136.352 145.186 137.048 144.482 137.911C143.782 138.779 143.236 139.755 142.855 140.858C142.468 141.961 142.277 143.087 142.277 144.221C142.277 145.808 142.618 147.291 143.295 148.687C143.973 150.084 144.945 151.219 146.213 152.105C147.482 152.995 148.895 153.434 150.454 153.434L150.468 153.379C151.69 153.379 152.822 153.108 153.859 152.57C154.899 152.028 155.758 151.332 156.449 150.468C157.14 149.6 157.681 148.624 158.076 147.535C158.472 146.445 158.663 145.329 158.663 144.194C158.663 142.608 158.322 141.125 157.645 139.728C156.967 138.327 155.995 137.192 154.718 136.315Z" fill="white"/>
<path d="M83.2134 147.29C83.0948 147.573 82.8851 147.958 82.5978 148.44C82.3379 148.874 82.119 149.241 81.9275 149.538C81.7542 149.821 81.6083 150.029 81.4898 150.162C80.9061 150.914 80.4137 151.286 80.0215 151.286C79.7616 151.286 79.6339 151.1 79.6339 150.737C79.6339 150.038 80.0397 149.171 80.8468 148.135C81.6539 147.099 82.4017 146.586 83.0903 146.586C83.2635 146.586 83.3547 146.613 83.373 146.661L83.4003 146.688C83.4185 146.688 83.4277 146.706 83.4277 146.741C83.4186 146.825 83.3502 147.007 83.2134 147.29ZM85.7897 141.815C86.8385 139.098 87.7914 137.739 88.6487 137.739C88.9587 137.739 89.1138 137.925 89.1138 138.288C89.1138 139.824 87.4449 142.78 84.1162 147.166C84.5266 145.4 85.0875 143.612 85.7897 141.815ZM88.6031 147.44C89.0818 146.675 89.4603 146.29 89.7385 146.29C89.9436 146.29 90.0485 146.391 90.0485 146.591C90.0485 146.989 89.7658 147.458 89.1959 147.993C88.7171 148.458 88.252 148.786 87.8051 148.967C87.9054 148.582 88.1699 148.078 88.6031 147.44ZM93.7101 146.865C93.97 146.13 94.3986 145.205 94.9959 144.09C95.5112 143.125 96.0447 142.231 96.5919 141.413C97.1436 140.576 97.6224 139.895 98.0374 139.363C98.7578 138.43 99.3688 137.961 99.8659 137.961C100.089 137.961 100.199 138.12 100.199 138.434C100.199 138.669 100.121 139.027 99.9662 139.509C99.6379 140.51 98.6438 142.125 96.9749 144.364C96.2362 145.382 95.5294 146.272 94.8637 147.042C94.2116 147.794 93.6462 148.37 93.1629 148.768C93.2906 148.232 93.4684 147.6 93.7101 146.865ZM96.4916 151.193C96.87 150.861 97.2029 150.507 97.4947 150.144C97.8048 149.777 98.0784 149.392 98.3201 148.994C98.3566 148.941 98.3748 148.879 98.3748 148.794C98.3748 148.679 98.32 148.617 98.2197 148.617C98.1513 148.635 98.0921 148.684 98.0374 148.768C97.3488 149.75 96.6785 150.516 96.0265 151.069C95.3927 151.605 94.8318 151.87 94.353 151.87C93.8742 151.87 93.5368 151.729 93.3499 151.445C93.1583 151.144 93.0671 150.711 93.0671 150.144V149.746C93.0854 149.596 93.1036 149.454 93.1173 149.321C93.8742 148.635 94.654 147.87 95.4611 147.02C96.2681 146.152 97.1117 145.188 97.9872 144.117C100.203 141.417 101.311 139.492 101.311 138.341C101.311 138.124 101.216 137.899 101.029 137.664C100.855 137.447 100.659 137.341 100.436 137.341C100.108 137.341 99.7382 137.447 99.3278 137.664C98.9174 137.863 98.4842 138.208 98.0419 138.691C97.7683 138.992 97.4309 139.381 97.0387 139.868C96.642 140.35 96.2408 140.886 95.8258 141.47C95.4291 142.037 95.0689 142.612 94.7451 143.196C94.4031 143.829 94.0247 144.524 93.6097 145.272C93.1994 146.024 92.8437 146.79 92.5519 147.573C92.3513 148.148 92.2236 148.71 92.1689 149.268C91.9135 149.587 91.6308 149.932 91.3071 150.304C90.9468 150.702 90.5501 151.047 90.1215 151.33C89.6929 151.614 89.2186 151.755 88.7034 151.755C88.293 151.755 87.992 151.596 87.8005 151.282C87.609 150.967 87.5178 150.613 87.5178 150.233C87.5178 149.95 87.5543 149.697 87.6227 149.48C87.9145 149.379 88.2337 149.215 88.5757 148.98C88.936 148.746 89.2825 148.48 89.6063 148.179C90.4133 147.445 90.8191 146.821 90.8191 146.303C90.8191 146.068 90.7508 145.896 90.614 145.776C90.4954 145.661 90.3495 145.599 90.1762 145.599C89.7294 145.599 89.2916 145.75 88.863 146.051C88.4344 146.352 88.0376 146.737 87.6774 147.201C87.3354 147.666 87.0619 148.166 86.8521 148.702C86.6925 149.1 86.5968 149.476 86.5603 149.834C86.4508 149.958 86.3323 150.096 86.2046 150.251C85.5161 151.052 84.9917 151.45 84.6315 151.45C84.0797 151.45 83.8061 150.817 83.8061 149.551C83.8061 149.016 83.8563 148.467 83.9612 147.9C88.0696 143.214 90.1215 139.996 90.1215 138.248C90.1215 137.447 89.7613 137.049 89.0408 137.049C87.9237 137.049 86.7837 138.217 85.6119 140.55C85.2516 141.266 84.9142 142.041 84.6087 142.877C84.2986 143.714 83.9977 144.612 83.7058 145.577C83.642 145.573 83.5781 145.568 83.5143 145.568C83.0446 145.568 82.5659 145.728 82.0826 146.051C81.5308 146.4 80.9745 146.936 80.4091 147.653C79.3238 149.002 78.7812 150.197 78.7812 151.229C78.7812 151.795 79.0457 152.078 79.5792 152.078C80.4912 152.078 81.6174 150.919 82.9534 148.604C82.8486 149.153 82.7984 149.64 82.7984 150.056C82.7984 151.375 83.2453 152.034 84.139 152.034C84.937 152.034 85.7441 151.53 86.5603 150.525C86.6196 151.087 86.8293 151.499 87.185 151.76C87.6136 152.078 88.1106 152.233 88.6806 152.233C89.3144 152.233 89.8752 152.065 90.354 151.733C90.8328 151.401 91.266 150.998 91.6399 150.534C91.8132 150.317 91.9773 150.109 92.1369 149.91C92.1369 150.051 92.1461 150.193 92.1597 150.335C92.1962 150.485 92.219 150.636 92.2372 150.786C92.4607 151.87 93.0352 152.41 93.9654 152.41C94.3758 152.41 94.7907 152.304 95.2011 152.087C95.6343 151.857 96.0675 151.565 96.4916 151.193Z" fill="white"/>
<g filter="url(#filter0_d_381_1286)">
<path d="M89.5 0L84.3455 2.60078L89.1751 5.76435L89.5 0ZM5 129L4.58174 128.726L4.07477 129.5H5V129ZM86.616 3.49033L4.58174 128.726L5.41826 129.274L87.4525 4.03828L86.616 3.49033ZM5 129.5H173V128.5H5V129.5Z" fill="white"/>
</g>
<defs>
<filter id="filter0_d_381_1286" x="0.0742188" y="0" width="176.926" height="137.5" filterUnits="userSpaceOnUse" color-interpolation-filters="sRGB">
<feFlood flood-opacity="0" result="BackgroundImageFix"/>
<feColorMatrix in="SourceAlpha" type="matrix" values="0 0 0 0 0 0 0 0 0 0 0 0 0 0 0 0 0 0 127 0" result="hardAlpha"/>
<feOffset dy="4"/>
<feGaussianBlur stdDeviation="2"/>
<feComposite in2="hardAlpha" operator="out"/>
<feColorMatrix type="matrix" values="0 0 0 0 0 0 0 0 0 0 0 0 0 0 0 0 0 0 0.25 0"/>
<feBlend mode="normal" in2="BackgroundImageFix" result="effect1_dropShadow_381_1286"/>
<feBlend mode="normal" in="SourceGraphic" in2="effect1_dropShadow_381_1286" result="shape"/>
</filter>
</defs>
</svg>
