<svg width="41" height="41" viewBox="0 0 41 41" fill="none" xmlns="http://www.w3.org/2000/svg">
<g clip-path="url(#clip0_381_1362)">
<path d="M23.8313 20.5L18.45 17.425V23.575L23.8313 20.5Z" fill="white"/>
<path fill-rule="evenodd" clip-rule="evenodd" d="M0 0H41V41H0V0ZM28.4438 13.7094C29.3406 13.9656 29.9813 14.6063 30.2375 15.5031C30.75 17.1688 30.75 20.5 30.75 20.5C30.75 20.5 30.75 23.8313 30.3656 25.4969C30.1094 26.3938 29.4687 27.0344 28.5719 27.2906C26.9062 27.675 20.5 27.675 20.5 27.675C20.5 27.675 13.9656 27.675 12.4281 27.2906C11.5312 27.0344 10.8906 26.3938 10.6344 25.4969C10.25 23.8313 10.25 20.5 10.25 20.5C10.25 20.5 10.25 17.1688 10.5062 15.5031C10.7625 14.6063 11.4031 13.9656 12.3 13.7094C13.9656 13.325 20.3719 13.325 20.3719 13.325C20.3719 13.325 26.9063 13.325 28.4438 13.7094Z" fill="white"/>
</g>
<defs>
<clipPath id="clip0_381_1362">
<rect width="41" height="41" rx="20.5" fill="white"/>
</clipPath>
</defs>
</svg>
